<svg width="14" height="16" viewBox="0 0 14 16" fill="none" xmlns="http://www.w3.org/2000/svg">
<g clip-path="url(#clip0)">
<path d="M7.0082 0.000813625C7.2642 0.000813625 7.5212 0.0988136 7.7162 0.295814L7.7646 0.305762C7.6712 0.204546 7.53549 0.139767 7.40938 0.0843903C7.28327 0.0290135 7.14709 0.000283747 7.00936 2.09121e-06C6.87163 -0.000279565 6.73533 0.0278929 6.60899 0.0827536C6.48266 0.137614 6.38162 0.204928 6.2878 0.305762L6.30039 0.29271C6.39305 0.199187 6.50314 0.128064 6.62467 0.0774289C6.74619 0.0267934 6.87655 0.000753036 7.0082 0.000813625ZM13.7242 6.29481C13.817 6.38779 13.8907 6.49814 13.9409 6.61957C13.9911 6.741 14.0169 6.87113 14.0168 7.00252C14.0167 7.13392 13.9907 7.26401 13.9403 7.38536C13.89 7.50672 13.8162 7.61697 13.7232 7.70981C13.6302 7.80266 13.5199 7.87628 13.3984 7.92648C13.277 7.97667 13.1469 8.00246 13.0155 8.00237C12.8841 8.00228 12.754 7.97631 12.6327 7.92594C12.5113 7.87557 12.401 7.80179 12.3082 7.70881L8.0092 3.41381V1.00181C8 1 8.0224 0.483948 7.7646 0.305762L13.7242 6.29481ZM7.0082 0.000813625L6.93142 0.000690695C6.65796 0.000252896 6.39835 0.120908 6.22237 0.330217V0.330217C6.08217 0.496969 6.00537 0.707879 6.00552 0.925736L6.0072 3.41481V15.0018C6.0072 15.2673 6.11267 15.5219 6.30039 15.7096C6.48811 15.8974 6.74272 16.0028 7.0082 16.0028C7.27368 16.0028 7.52829 15.8974 7.71602 15.7096C7.90374 15.5219 8.0092 15.2673 8.0092 15.0018V3.41381V0.937461C8.0092 0.712322 7.92812 0.494714 7.78079 0.324472V0.324472C7.60251 0.11845 7.34335 0.000259153 7.0709 0.000709898L7.0082 0.000813625ZM1.7082 7.70781C1.61542 7.80079 1.50524 7.87458 1.38394 7.92497C1.26265 7.97537 1.13261 8.00138 1.00126 8.00152C0.735994 8.0018 0.481476 7.89669 0.293703 7.70931C0.200727 7.61653 0.126936 7.50635 0.0765423 7.38505C0.0261488 7.26376 0.000139851 7.13372 5.63195e-07 7.00237C-0.000280741 6.7371 0.117421 6.46954 0.304796 6.28176L6.2878 0.305762C6 0.5 6.00663 0.747684 6.0072 1.00081V3.41481L1.7082 7.70781Z" fill="white"/>
</g>
<defs>
<clipPath id="clip0">
<rect width="14" height="16" fill="white"/>
</clipPath>
</defs>
</svg>
