<svg xmlns="http://www.w3.org/2000/svg" width="69" height="70" viewBox="0 0 69 70"><g><g><path fill="#fff" d="M68.996 62.513c0 4.128-3.3 7.487-7.357 7.487h-5.421c-.08 0-.159-.005-.236-.01-.067.005-.14.01-.216.01H42.215c-4.306 0-7.81-3.565-7.81-7.949a8.026 8.026 0 0 1 3.92-6.877c.862-2.795 3.454-4.766 6.373-4.766.373 0 .744.032 1.11.095 1.882-2.645 4.926-4.252 8.15-4.252 5.16 0 9.465 4.031 10.005 9.164 2.967 1.008 5.032 3.849 5.033 7.098zm-2.518 0c0-2.396-1.664-4.456-3.957-4.899l-1.005-.194-.014-1.016c-.054-4.22-3.438-7.653-7.544-7.653-2.685 0-5.11 1.422-6.488 3.805l-.513.888-.978-.326a4.07 4.07 0 0 0-1.283-.21c-1.937 0-3.645 1.414-4.061 3.364l-.129.593-.547.268c-1.846.906-3.04 2.837-3.04 4.918 0 3.004 2.375 5.448 5.293 5.448l13.738-.01.214.007 5.474.003c2.67 0 4.841-2.237 4.84-4.987zM32.707 52.495c0 .69-.563 1.25-1.258 1.25-13.733 0-23.209-2.768-27.947-6.33a12.8 12.8 0 0 1-.868-.708c-.036-.032-.08-.063-.115-.096V57.13c.016.054.03.108.04.164.57 3.452 8.715 7.682 22.695 8.724a1.252 1.252 0 0 1 1.16 1.34 1.253 1.253 0 0 1-1.349 1.152C13.595 67.655 1.58 64.096.148 58.055a1.168 1.168 0 0 1-.145-.56V11.249c0-.227.078-.428.185-.612C1.643 5.274 12.484-.001 31.448-.001c18.965 0 29.806 5.275 31.263 10.637.106.184.184.385.184.612v31.248c0 .691-.563 1.25-1.258 1.25a1.253 1.253 0 0 1-1.258-1.25V31.615h-.001c-.322.288-.664.572-1.044.847-4.759 3.54-14.21 6.284-27.885 6.284-13.733 0-23.209-2.767-27.948-6.333-.314-.23-.594-.469-.868-.707-.036-.033-.08-.064-.116-.096v10.258c0 .2.052.403.1.606a3.056 3.056 0 0 0 .326.823c.085.154.18.308.29.462.083.115.177.23.276.346.14.164.288.328.456.49.102.099.215.196.327.295.206.179.422.356.662.533.103.074.215.15.323.224.284.196.581.39.907.579.085.051.178.1.267.15.374.211.766.419 1.188.621.054.026.112.051.166.078.47.221.965.438 1.492.649l.045.017c2.857 1.133 6.51 2.086 10.769 2.71.021.005.042.007.064.01.827.12 1.676.229 2.548.324.142.015.292.025.435.04.761.078 1.531.152 2.324.208.362.026.742.04 1.11.061.596.036 1.186.074 1.798.097 1 .034 2.019.055 3.059.055.695 0 1.258.558 1.258 1.25zM3.004 17.016c-.163-.135-.336-.269-.487-.405v10.257c0 .201.052.405.1.607.035.15.084.301.146.452.051.124.112.247.18.372a4.649 4.649 0 0 0 .566.807c.14.164.287.328.456.49.102.099.215.196.327.295.206.179.422.356.662.533.103.074.215.15.323.225.284.194.581.388.907.578.085.051.178.1.267.15.374.211.766.419 1.188.621.054.027.112.052.166.078a26.8 26.8 0 0 0 1.537.666c2.857 1.132 6.51 2.086 10.769 2.711.021.004.042.006.064.009.827.12 1.676.228 2.548.323.142.016.292.026.435.04.761.08 1.531.153 2.324.21.362.026.742.04 1.11.06.596.036 1.186.075 1.798.097a86.79 86.79 0 0 0 6.117.003c.61-.022 1.2-.06 1.797-.095.368-.022.748-.036 1.11-.062.793-.057 1.563-.13 2.324-.209.143-.014.293-.025.435-.04a67.249 67.249 0 0 0 2.613-.332c4.257-.624 7.911-1.578 10.768-2.711l.045-.018a27.21 27.21 0 0 0 1.492-.648c.055-.027.112-.052.166-.078.423-.204.814-.411 1.189-.62.089-.051.18-.1.266-.151.326-.19.623-.384.907-.579.11-.075.22-.149.323-.225.24-.176.456-.354.662-.532.113-.1.225-.197.327-.295a6.846 6.846 0 0 0 .732-.836 4.251 4.251 0 0 0 .47-.833c.062-.15.111-.301.147-.452.047-.202.099-.406.099-.607V16.614c-.151.137-.323.27-.487.405-.092.076-.176.15-.27.225-.378.297-.785.587-1.227.87-.091.06-.195.116-.29.175a23.92 23.92 0 0 1-3.082 1.591c-.083.036-.158.074-.243.11a34.63 34.63 0 0 1-1.868.715c-.18.063-.368.123-.553.185-.518.174-1.054.342-1.609.502-.2.059-.396.117-.601.173-.736.203-1.496.395-2.293.573-.11.025-.228.046-.338.07a54.86 54.86 0 0 1-2.954.555c-.714.116-1.448.223-2.201.32-.194.026-.379.055-.575.079-.936.112-1.904.21-2.9.29-.246.02-.5.035-.749.053-.796.058-1.61.105-2.443.142-.304.013-.606.028-.914.038-1.084.036-2.19.062-3.333.062a95.59 95.59 0 0 1-3.333-.062c-.31-.01-.612-.024-.915-.038a88.173 88.173 0 0 1-2.443-.142c-.249-.018-.504-.032-.75-.052a78.397 78.397 0 0 1-2.899-.291c-.196-.025-.38-.053-.575-.078a68.148 68.148 0 0 1-2.972-.451c-.75-.132-1.479-.273-2.182-.425-.11-.024-.229-.045-.338-.07a47.587 47.587 0 0 1-2.293-.573c-.205-.056-.402-.116-.602-.173a41.129 41.129 0 0 1-1.608-.502c-.185-.062-.374-.122-.554-.185a33.047 33.047 0 0 1-1.868-.716c-.084-.035-.16-.072-.243-.109a27.152 27.152 0 0 1-1.909-.918c-.411-.22-.802-.444-1.172-.673-.096-.059-.199-.116-.29-.175a16.292 16.292 0 0 1-1.227-.87c-.096-.075-.18-.15-.272-.229zm-.485-5.143c0 4.435 11.88 9.375 28.93 9.375 17.05 0 28.93-4.94 28.93-9.375 0-4.434-11.88-9.374-28.93-9.374-17.05 0-28.93 4.94-28.93 9.374z"/></g></g></svg>