<svg xmlns="http://www.w3.org/2000/svg" width="70" height="70" viewBox="0 0 70 70"><g><g><path fill="#40c4f4" d="M70 25.156c0 13.87-11.285 25.156-25.156 25.156-6.582 0-12.58-2.542-17.068-6.693l-3.41 3.41c.605.881.931 1.922.931 3.014a5.307 5.307 0 0 1-1.564 3.777L9.118 68.435A5.305 5.305 0 0 1 5.34 70a5.305 5.305 0 0 1-3.777-1.565A5.305 5.305 0 0 1 0 64.66c0-1.427.556-2.769 1.564-3.778L16.18 46.266a5.307 5.307 0 0 1 3.776-1.564c1.018 0 1.99.284 2.831.812l3.448-3.448a25.059 25.059 0 0 1-6.548-16.91c0-13.872 11.285-25.157 25.157-25.157C58.714 0 70 11.284 70 25.156zM23.11 50.043c0-.842-.328-1.634-.924-2.23a3.133 3.133 0 0 0-2.23-.923c-.842 0-1.634.328-2.23.923L3.111 62.43a3.132 3.132 0 0 0-.924 2.23c0 .842.328 1.634.924 2.23a3.131 3.131 0 0 0 2.23.923c.843 0 1.634-.328 2.23-.924l14.615-14.615a3.133 3.133 0 0 0 .924-2.23zm44.702-24.887c0-12.665-10.303-22.969-22.968-22.969s-22.97 10.304-22.97 22.969c0 12.665 10.305 22.968 22.97 22.968s22.968-10.303 22.968-22.968zm-5.468-8.75a3.285 3.285 0 0 1-3.754 3.247L50.533 34.96c.541.585.873 1.368.873 2.226a3.285 3.285 0 0 1-3.281 3.282 3.285 3.285 0 0 1-3.281-3.282c0-.635.182-1.228.495-1.731l-4.886-6.108a3.265 3.265 0 0 1-2.492-.138l-3.281 3.282a3.285 3.285 0 0 1-2.96 4.695 3.285 3.285 0 0 1-3.283-3.281 3.285 3.285 0 0 1 4.695-2.96v-.001l3.282-3.281a3.285 3.285 0 0 1 2.96-4.695 3.285 3.285 0 0 1 3.282 3.28c0 .636-.182 1.229-.495 1.732l4.886 6.107a3.277 3.277 0 0 1 1.55-.147l8.058-15.309a3.268 3.268 0 0 1-.874-2.226 3.285 3.285 0 0 1 3.281-3.282 3.285 3.285 0 0 1 3.282 3.282zm-29.532 17.5c0-.603-.49-1.094-1.093-1.094s-1.094.49-1.094 1.094a1.095 1.095 0 0 0 2.187 0zm6.563-6.562a1.095 1.095 0 0 0 0-2.188 1.095 1.095 0 0 0 0 2.188zm9.844 9.843a1.095 1.095 0 0 0-2.187 0 1.095 1.095 0 0 0 2.187 0zm10.937-20.781a1.095 1.095 0 0 0-2.187 0c0 .603.49 1.094 1.093 1.094.604 0 1.094-.491 1.094-1.094z"/></g></g></svg>