<svg xmlns="http://www.w3.org/2000/svg" width="200" height="55" viewBox="0 0 200 55"><g><g><g><path fill="#3d4753" d="M174.8 39.824L170 52.398c-.155.39-.335.743-.542 1.057a3.445 3.445 0 0 1-.748.817c-.293.23-.645.408-1.058.536-.413.126-.903.192-1.471.192-.12 0-.327-.011-.62-.026a15.628 15.628 0 0 1-1.019-.102c-.387-.053-.8-.12-1.238-.205a8.005 8.005 0 0 1-1.277-.358l.567-3.188c.086.019.215.04.387.066.172.025.353.05.542.075.19.026.366.047.53.063.163.018.279.026.348.026.602.018 1.027-.055 1.277-.216.249-.161.468-.473.658-.93l.516-1.328h-2.27a128.967 128.967 0 0 0-.93-2.627c-.206-.562-.417-1.148-.632-1.758a147.233 147.233 0 0 0-1.2-3.314 23.31 23.31 0 0 1-.387-1.098h-1.264v-3.292h4.877l2.838 9.462h.103c.017-.084.082-.289.194-.613.111-.32.236-.704.374-1.145.137-.442.288-.913.451-1.417.164-.5.319-.977.465-1.428a101.859 101.859 0 0 1 .606-1.823h-1.212v-3.036h7.095v3.036zm-17.237 9.817c-.31.036-.602.06-.877.079a10.229 10.229 0 0 1-1.355 0 3.01 3.01 0 0 1-.697-.14 2.03 2.03 0 0 1-.658-.372 2.22 2.22 0 0 1-.542-.688l-2.245-4.54-1.238.92v1.476h1.187v2.987H143.5v-2.987h1.548V34.01h-1.625v-2.907h6.528v9.666l2.296-1.786v-2.167h6.27v2.983h-1.754l-2.013 1.506 2.787 5.124 1.755.308v2.576a5.211 5.211 0 0 1-.813.204c-.301.05-.606.092-.916.125zm-23.589.028c-1.118 0-2.275-.09-3.47-.27a14.622 14.622 0 0 1-3.42-.93c0-.765-.004-1.538-.012-2.321-.01-.78-.013-1.563-.013-2.346h3.38l.026 1.863c.258.102.533.183.826.241.292.062.584.11.877.154a10.84 10.84 0 0 0 1.496.115c1.05 0 1.785-.17 2.207-.51.42-.34.632-.75.632-1.225 0-.425-.12-.749-.361-.969-.242-.221-.568-.4-.981-.536-1.204-.39-2.31-.753-3.316-1.085-1.006-.33-1.87-.7-2.593-1.107-.723-.409-1.282-.902-1.677-1.481-.396-.576-.594-1.316-.594-2.22 0-1.733.624-3.088 1.871-4.065 1.247-.978 3.1-1.468 5.56-1.468.482 0 .994.023 1.536.065.542.043 1.084.111 1.626.204.541.094 1.07.216 1.586.368.517.154.998.333 1.446.536 0 .75.004 1.488.012 2.221.009.73.013 1.47.013 2.219H137.2c0-.307-.004-.614-.013-.92a31.013 31.013 0 0 1-.012-.893 5.665 5.665 0 0 0-1.252-.306 9.4 9.4 0 0 0-1.226-.1c-.911 0-1.557.16-1.935.483-.378.323-.567.698-.567 1.122 0 .291.103.545.31.766.206.221.48.415.825.585.344.171.735.328 1.174.473.439.144.89.286 1.355.42.877.257 1.69.524 2.438.803a8.242 8.242 0 0 1 1.961 1.033c.559.41.998.906 1.316 1.493.318.587.477 1.313.477 2.18 0 1.752-.67 3.091-2.012 4.018-1.342.926-3.363 1.39-6.064 1.39zm-9.883-.32c-.24.042-.469.077-.684.103-.215.025-.4.037-.554.037-.482 0-.86-.093-1.136-.28-.275-.187-.421-.602-.438-1.25-.018 0-.026-.004-.026-.011 0-.01-.009-.015-.026-.015-.482.409-.938.724-1.367.944-.43.222-.83.382-1.2.486-.37.101-.701.16-.994.179-.292.015-.533.024-.722.024-.723 0-1.32-.12-1.794-.358-.473-.237-.847-.535-1.122-.892a3.118 3.118 0 0 1-.568-1.16 4.841 4.841 0 0 1-.155-1.16c0-1.07.392-1.934 1.175-2.588.782-.654 1.965-1.033 3.547-1.136l3.2-.204v-.816c0-1.072-.19-1.812-.568-2.219-.378-.408-1.083-.611-2.115-.611-.62 0-1.26.058-1.923.177-.662.118-1.312.29-1.948.51-.086-.238-.164-.47-.232-.7a57.886 57.886 0 0 1-.207-.702c.723-.323 1.505-.57 2.349-.74.842-.168 1.66-.256 2.45-.256 1.325 0 2.357.307 3.097.92.74.611 1.11 1.682 1.11 3.213v6.937h1.987l.129 1.2a2.577 2.577 0 0 1-.568.215c-.224.06-.456.11-.697.153zm-2.89-5.929l-3.148.204c-.825.051-1.453.277-1.883.675-.43.4-.645.898-.645 1.491 0 .733.18 1.264.541 1.597.362.331.955.495 1.78.495.534 0 1.106-.135 1.717-.408a5.993 5.993 0 0 0 1.638-1.071zm-8.36-4.754a.755.755 0 0 0-.396-.094 3.95 3.95 0 0 0-1.226.205 8.432 8.432 0 0 0-1.238.509c-.405.205-.783.425-1.136.664-.352.24-.658.459-.916.662v7.17h1.987v1.58h-5.935v-1.58h1.858v-9.233h-1.832v-1.632h3.87v1.733h.052c.258-.203.564-.425.916-.662.353-.238.731-.46 1.136-.663a8.715 8.715 0 0 1 1.238-.51c.422-.136.83-.205 1.226-.205.207 0 .365.05.477.154.112.1.168.289.168.561 0 .29-.06.631-.18 1.033-.021.068-.044.179-.068.308zm-12.214-.373c.292.306.52.705.684 1.199.163.493.245 1.003.245 1.53 0 .665-.133 1.259-.4 1.787a3.95 3.95 0 0 1-1.096 1.337 4.951 4.951 0 0 1-1.665.841 7.242 7.242 0 0 1-2.129.294h-1.393c-.654 0-1.153.054-1.497.164-.344.11-.516.356-.516.742 0 .286.12.5.362.64.24.143.558.213.954.213h3.252c1.548 0 2.739.322 3.573.961.835.64 1.252 1.574 1.252 2.8 0 1.212-.534 2.194-1.6 2.944-1.067.752-2.59 1.127-4.567 1.127-1.032 0-1.893-.1-2.58-.295-.689-.196-1.239-.46-1.652-.791-.413-.331-.705-.713-.877-1.147a3.68 3.68 0 0 1-.258-1.368c0-.73.18-1.356.542-1.874.36-.52.73-.873 1.11-1.059-.517-.102-.904-.32-1.162-.651-.258-.33-.387-.75-.387-1.261 0-.373.073-.688.22-.942a1.89 1.89 0 0 1 .541-.61c.215-.154.447-.273.697-.357.249-.085.477-.145.684-.178-.448-.204-.856-.562-1.226-1.072s-.555-1.234-.555-2.168c0-.816.15-1.508.452-2.078.3-.57.692-1.033 1.174-1.39a4.776 4.776 0 0 1 1.625-.78 7.07 7.07 0 0 1 1.807-.241c.412 0 .825.031 1.238.09.413.059.791.13 1.136.216h4.077v1.326h-2.013zm-7.676 13.403c.094.28.275.528.542.74.266.211.632.385 1.096.522.465.137 1.067.203 1.806.203 1.239 0 2.164-.212 2.774-.636.61-.425.916-.986.916-1.684 0-.256-.047-.515-.142-.777a1.847 1.847 0 0 0-.477-.715c-.224-.212-.529-.386-.916-.522s-.864-.205-1.432-.205h-2.813a1.49 1.49 0 0 0-.529.308c-.18.152-.34.33-.477.534a3.445 3.445 0 0 0-.348.663 1.915 1.915 0 0 0-.142.714c0 .288.047.575.142.855zm6.322-11.566a2.343 2.343 0 0 0-.504-.894 2.941 2.941 0 0 0-.954-.687c-.396-.186-.887-.28-1.471-.28-.98 0-1.725.246-2.232.74-.508.492-.761 1.163-.761 2.014 0 .816.236 1.465.71 1.95.472.485 1.148.728 2.025.728.963 0 1.758-.225 2.387-.676.627-.45.941-1.127.941-2.027 0-.255-.047-.545-.141-.868zM80.81 45.358c.103.51.287.956.554 1.339.267.384.628.684 1.084.906.456.222 1.036.33 1.742.33.74 0 1.406-.07 2-.215.593-.145 1.251-.36 1.974-.65l.567 1.35c-.757.393-1.518.681-2.283.868-.766.187-1.57.28-2.413.28-1.118 0-2.039-.177-2.761-.536-.722-.357-1.29-.831-1.703-1.427a5.416 5.416 0 0 1-.852-2.041 12.058 12.058 0 0 1-.232-2.396c0-.562.069-1.216.207-1.966a6.494 6.494 0 0 1 .8-2.13c.395-.671.954-1.243 1.677-1.721.722-.474 1.668-.712 2.838-.712.809 0 1.497.11 2.064.33.568.221 1.037.51 1.407.867.37.356.658.758.864 1.2.207.44.361.884.465 1.326.103.441.163.858.18 1.25.017.39.026.712.026.968V43.7h-8.36c0 .593.051 1.146.155 1.657zm6.167-3.238a9.142 9.142 0 0 0-.168-1.517 3.404 3.404 0 0 0-.49-1.226 2.414 2.414 0 0 0-.916-.817c-.379-.194-.852-.291-1.42-.291-.55 0-1.028.107-1.432.317a2.92 2.92 0 0 0-.993.842 3.89 3.89 0 0 0-.594 1.225 6.777 6.777 0 0 0-.258 1.467zm-13.315 7.37c-1.225 0-2.1-.255-2.622-.766-.523-.51-.784-1.274-.784-2.296v-7.88h-1.832v-1.223l1.91-.586.679-2.755 1.36-.23v3.163h3.792v1.632h-3.819v7.14c0 .307.017.584.052.83.034.246.112.46.232.637.12.18.292.318.516.42.224.103.533.155.93.155.309 0 .661-.03 1.057-.09.396-.06.843-.157 1.342-.293l.387 1.454c-.465.22-.985.39-1.561.51a8.226 8.226 0 0 1-1.639.178zm-8.214 0c-.679 0-1.145-.158-1.397-.472-.253-.314-.379-.787-.379-1.415V41.15c0-.424-.022-.804-.065-1.135a2.04 2.04 0 0 0-.283-.842 1.294 1.294 0 0 0-.658-.509c-.293-.112-.689-.166-1.187-.166-.603 0-1.256.131-1.961.395-.706.265-1.325.547-1.858.853v9.617h-2.09V38.549h-1.884v-1.632h3.974v1.121c.725-.44 1.484-.786 2.278-1.032.793-.247 1.51-.37 2.148-.37.828 0 1.488.114 1.98.345.492.228.863.527 1.114.891.25.366.41.77.478 1.211.07.444.104.876.104 1.303l.026 7.395h1.935v1.25a4.638 4.638 0 0 1-1.161.345 6.836 6.836 0 0 1-1.114.113zm-14.94.026c-.603 0-1.045-.125-1.33-.37-.283-.248-.434-.718-.45-1.415v-9.182h-1.317V36.94h3.406v10.84h1.884v1.25a5.059 5.059 0 0 1-1.122.358 5.64 5.64 0 0 1-1.071.127zm-.826-14.513c-.379 0-.701-.135-.968-.407a1.31 1.31 0 0 1-.4-.945c0-.39.134-.718.4-.982.267-.26.59-.395.968-.395.396 0 .727.134.993.395.267.264.4.592.4.982 0 .358-.133.672-.4.945a1.336 1.336 0 0 1-.993.407z"/></g><g><path fill="#40c4f4" d="M98.092 30.855a20.256 20.256 0 0 0 1.073-6.473c0-11.274-9.193-20.416-20.533-20.416-10.416 0-19.007 7.717-20.34 17.708l.01.029c-.012.087-.036.173-.047.262v.001l-.133-.133a13.517 13.517 0 0 0-3.498-2.496l.002-.01a13.495 13.495 0 0 0-6.043-1.42c-7.468 0-13.522 6.021-13.522 13.444 0 2.747.833 5.3 2.255 7.428a10.339 10.339 0 0 0-.902-.372l.01.01a9.971 9.971 0 0 0-3.366-.593c-.245 0-.486.02-.726.037l-.005-.01c-5.19.372-9.285 4.677-9.285 9.933 0 .68.07 1.35.201 1.991h-9.51a7.008 7.008 0 0 1-6.717 4.978c-3.872 0-7.011-3.12-7.011-6.97 0-3.85 3.139-6.97 7.01-6.97 3.177 0 5.856 2.1 6.718 4.977h5.302l.125.124c.839-6.212 5.798-11.118 12.053-11.939l.05.043a17.183 17.183 0 0 1-.208-2.667c0-9.623 7.848-17.426 17.528-17.426 2.571 0 5.002.567 7.198 1.56a24.538 24.538 0 0 1 22.85-15.5c13.554 0 24.54 10.922 24.54 24.397 0 2.244-.327 4.41-.9 6.473zM7.016 43.8c-2.213 0-4.007 1.783-4.007 3.984 0 2.199 1.794 3.982 4.007 3.982 2.213 0 4.006-1.783 4.006-3.982 0-2.2-1.793-3.984-4.006-3.984zm170.755 5.975l1.511-3.985h6.981a7.01 7.01 0 0 1 6.72-4.978c3.873 0 7.012 3.122 7.012 6.972 0 3.85-3.139 6.97-7.011 6.97a7.009 7.009 0 0 1-6.721-4.979zm15.213-5.975c-2.213 0-4.007 1.783-4.007 3.984 0 2.199 1.794 3.982 4.007 3.982 2.213 0 4.006-1.783 4.006-3.982 0-2.2-1.793-3.984-4.006-3.984z"/></g></g></g></svg>