<svg fill="#001f2f" width="50" height="50" viewBox="0 -3 512.001 512" xmlns="http://www.w3.org/2000/svg"><path d="m122.359375 62.703125c-4.289063 0-7.769531 3.476563-7.769531 7.765625v10.480469h-10.457032c-4.289062 0-7.769531 3.476562-7.769531 7.765625 0 4.289062 3.480469 7.769531 7.769531 7.769531h10.457032v10.476563c0 4.289062 3.480468 7.769531 7.769531 7.769531s7.769531-3.480469 7.769531-7.769531v-10.476563h10.457032c4.289062 0 7.769531-3.480469 7.769531-7.769531 0-4.289063-3.480469-7.765625-7.769531-7.765625h-10.457032v-10.480469c0-4.289062-3.480468-7.765625-7.769531-7.765625zm0 0"/><path d="m186.734375 258.320312c-2.066406-4.027343-6.625-8.945312-16.605469-9.53125-.152344-.007812-.300781-.011718-.453125-.011718h-15.410156c-2.546875.023437-7.066406-.253906-8.75-2.46875-1.621094-2.136719-1.585937-6.894532.09375-12.746094l21.292969-60.347656c.027344-.078125.054687-.160156.082031-.242188 2.984375-9.425781-1.296875-18.703125-10.644531-23.082031-9.714844-4.546875-23.617188-2.78125-31.464844 9.351563l-51.40625 74.429687-17.519531 25.339844c-6.367188 8.9375-7.671875 18.628906-3.570313 26.601562 3.625 7.050781 11.105469 11.605469 19.054688 11.605469h27.445312c1.671875 0 2.558594.210938 2.953125.34375.664063 3.097656-3.089843 12.925781-4.925781 17.734375-.019531.058594-.042969.117187-.0625.171875l-22.15625 62.402344c-3.710938 9.140625-.214844 19.753906 8.371094 25.316406 3.230468 2.097656 7.28125 3.472656 11.769531 3.472656 6.4375 0 13.78125-2.832031 20.90625-10.445312.328125-.351563.625-.734375.882813-1.140625l57.425781-90.308594c13.566406-21.464844 17.71875-36.65625 12.691406-46.445313zm-25.816406 38.128907-57 89.640625c-4.558594 4.648437-9.164063 6.167968-12.410157 4.0625-1.957031-1.265625-3.464843-3.972656-2.40625-6.492188.058594-.132812.109376-.269531.160157-.410156l22.1875-62.496094c4.449219-11.644531 9.019531-23.675781 3.167969-32.175781-3.152344-4.574219-8.445313-6.894531-15.738282-6.894531h-27.445312c-2.15625 0-4.261719-1.277344-5.238282-3.175782-1.375-2.667968-.511718-6.402343 2.429688-10.511718.023438-.035156.046875-.066406.070312-.101563l17.554688-25.390625 51.480469-74.539062c.054687-.078125.105469-.152344.152343-.230469 3.632813-5.679687 9.355469-4.953125 11.867188-3.773437 3.152344 1.476562 2.710938 3.382812 2.457031 4.214843l-21.324219 60.425781c-.046874.136719-.09375.273438-.132812.410157-3.246094 11.121093-2.417969 20.351562 2.390625 26.6875 4.417969 5.824219 11.609375 8.722656 21.210937 8.613281h15.074219c1.847657.132812 3.207031.558594 3.484375 1.101562 1.1875 2.300782.195313 11.753907-11.992187 31.035157zm0 0"/><path d="m213.117188 29.648438h-50.058594v-7.570313c0-11.816406-9.59375-21.429687-21.386719-21.429687h-40.769531c-11.808594 0-21.417969 9.613281-21.417969 21.429687v7.570313h-47.882813c-17.425781 0-31.601562 14.1875-31.601562 31.625v413.105468c0 17.441406 14.175781 31.628906 31.601562 31.628906h181.515626c17.425781 0 31.601562-14.1875 31.601562-31.628906v-251.625c0-4.289062-3.476562-7.765625-7.769531-7.765625-4.289063 0-7.765625 3.476563-7.765625 7.765625v251.625c0 8.875-7.207032 16.089844-16.066406 16.089844h-181.515626c-8.859374 0-16.066406-7.214844-16.066406-16.089844v-413.105468c0-8.871094 7.207032-16.089844 16.066406-16.089844h181.515626c8.859374 0 16.066406 7.21875 16.066406 16.089844v125.605468c0 4.289063 3.476562 7.769532 7.765625 7.769532 4.292969 0 7.769531-3.480469 7.769531-7.769532v-125.605468c0-17.4375-14.179688-31.625-31.601562-31.625zm-118.097657-7.570313c0-3.25 2.640625-5.894531 5.882813-5.894531h40.769531c3.226563 0 5.851563 2.644531 5.851563 5.894531v7.570313h-52.503907zm0 0"/><path d="m105.453125 456.417969c-4.289063 0-7.769531 3.476562-7.769531 7.765625 0 4.292968 3.480468 7.769531 7.769531 7.769531h36.453125c4.292969 0 7.769531-3.476563 7.769531-7.769531 0-4.289063-3.476562-7.765625-7.769531-7.765625zm0 0"/><path d="m389.640625 62.027344c-4.289063 0-7.769531 3.476562-7.769531 7.765625v10.480469h-10.457032c-4.289062 0-7.769531 3.476562-7.769531 7.765624 0 4.289063 3.480469 7.769532 7.769531 7.769532h10.457032v10.507812c0 4.289063 3.480468 7.765625 7.769531 7.765625s7.769531-3.476562 7.769531-7.765625v-10.511718h10.457032c4.289062 0 7.769531-3.476563 7.769531-7.765626 0-4.289062-3.480469-7.769531-7.769531-7.769531h-10.457032v-10.476562c0-4.289063-3.480468-7.765625-7.769531-7.765625zm0 0"/><path d="m504.230469 193.972656c4.292969 0 7.769531-3.480468 7.769531-7.769531v-125.578125c0-17.453125-14.175781-31.652344-31.601562-31.652344h-50.054688v-7.570312c0-11.800782-9.597656-21.402344-21.390625-21.402344h-40.769531c-11.792969 0-21.386719 9.601562-21.386719 21.402344v7.570312h-47.914063c-17.421874 0-31.601562 14.199219-31.601562 31.652344v413.078125c0 17.4375 14.179688 31.628906 31.601562 31.628906h181.515626c17.425781 0 31.601562-14.191406 31.601562-31.628906v-251.59375c0-4.289063-3.476562-7.769531-7.765625-7.769531-4.292969 0-7.769531 3.480468-7.769531 7.769531v251.597656c0 8.871094-7.207032 16.089844-16.066406 16.089844h-181.515626c-8.859374 0-16.066406-7.21875-16.066406-16.089844v-413.082031c0-8.886719 7.207032-16.117188 16.066406-16.117188h181.515626c8.859374 0 16.066406 7.230469 16.066406 16.117188v125.578125c0 4.289063 3.476562 7.769531 7.765625 7.769531zm-141.898438-172.570312c0-3.179688 2.679688-5.867188 5.851563-5.867188h40.769531c3.171875 0 5.851563 2.6875 5.851563 5.867188v7.566406h-52.472657zm0 0"/><path d="m372.734375 455.742188c-4.289063 0-7.769531 3.476562-7.769531 7.765624 0 4.292969 3.480468 7.769532 7.769531 7.769532h36.453125c4.292969 0 7.769531-3.476563 7.769531-7.769532 0-4.289062-3.476562-7.765624-7.769531-7.765624zm0 0"/><path d="m477.863281 410.859375v-53.125c0-9.984375-8.132812-18.109375-18.128906-18.109375h-134.34375c-10 0-18.132813 8.125-18.132813 18.109375v53.125c0 10 8.132813 18.136719 18.132813 18.136719h134.34375c9.996094 0 18.128906-8.136719 18.128906-18.136719zm-155.066406 0v-53.125c0-1.394531 1.1875-2.574219 2.59375-2.574219h134.34375c1.40625 0 2.59375 1.179688 2.59375 2.574219v53.125c0 1.410156-1.1875 2.601563-2.59375 2.601563h-134.34375c-1.40625 0-2.59375-1.191407-2.59375-2.601563zm0 0"/><path d="m322.453125 324.25h134.375c9.996094 0 18.128906-8.125 18.128906-18.109375v-53.121094c0-10.003906-8.132812-18.140625-18.128906-18.140625h-134.375c-9.980469 0-18.101563 8.136719-18.101563 18.140625v53.121094c0 9.984375 8.121094 18.109375 18.101563 18.109375zm-2.5625-71.230469c0-1.4375 1.148437-2.605469 2.5625-2.605469h134.375c1.429687 0 2.59375 1.167969 2.59375 2.605469v53.121094c0 1.394531-1.1875 2.574219-2.59375 2.574219h-134.375c-1.414063 0-2.5625-1.15625-2.5625-2.574219zm0 0"/><path d="m302.796875 148.273438v53.121093c0 10 8.121094 18.140625 18.101563 18.140625h134.375c9.996093 0 18.128906-8.140625 18.128906-18.140625v-53.121093c0-10.003907-8.132813-18.140626-18.128906-18.140626h-134.375c-9.980469 0-18.101563 8.136719-18.101563 18.140626zm155.070313 0v53.121093c0 1.410157-1.1875 2.601563-2.59375 2.601563h-134.375c-1.390626 0-2.5625-1.191406-2.5625-2.601563v-53.121093c0-1.414063 1.171874-2.605469 2.5625-2.605469h134.375c1.40625 0 2.59375 1.191406 2.59375 2.605469zm0 0"/></svg>