<?xml version="1.0"?>
<svg xmlns="http://www.w3.org/2000/svg" viewBox="0 0 64 64" width="512" height="512"><g id="Data_Cable" data-name="Data Cable"><path d="M34,15A17,17,0,1,0,51,32,17.019,17.019,0,0,0,34,15Zm0,32A15,15,0,1,1,49,32,15.017,15.017,0,0,1,34,47Z"/><path d="M34,19A13,13,0,1,0,47,32,13.015,13.015,0,0,0,34,19Zm0,24A11,11,0,1,1,45,32,11.013,11.013,0,0,1,34,43Z"/><path d="M34,23a9,9,0,1,0,9,9A9.01,9.01,0,0,0,34,23Zm0,16a7,7,0,1,1,7-7A7.009,7.009,0,0,1,34,39Z"/><path d="M61,8V3a1,1,0,0,0-1-1H56a1,1,0,0,0-1,1V8a1,1,0,0,0-1,1v6a3,3,0,0,0,3,3V28a22.872,22.872,0,0,1-4.088,13.069A20.951,20.951,0,0,0,34,11H33A25.028,25.028,0,0,0,8,36v8H7a5.006,5.006,0,0,0-5,5v8a1,1,0,0,0,1,1H4v3a1,1,0,0,0,1,1h8a1,1,0,0,0,1-1V58h1a1,1,0,0,0,1-1V49a5.006,5.006,0,0,0-5-5H10V36a22.946,22.946,0,0,1,7.571-17.042A20.972,20.972,0,0,0,34,53,25.028,25.028,0,0,0,59,28V18a3,3,0,0,0,3-3V9A1,1,0,0,0,61,8ZM12,60H6V58h6Zm2-11v7H4V49a3,3,0,0,1,3-3h4A3,3,0,0,1,14,49Zm1-17A19,19,0,1,1,34,51,19.021,19.021,0,0,1,15,32ZM57,4h2V8H57Zm3,11a1,1,0,0,1-1,1H57a1,1,0,0,1-1-1V10h4Z"/></g></svg>
