<svg xmlns="http://www.w3.org/2000/svg" width="70" height="70" viewBox="0 0 70 70"><g><g><path d="M57.63 19.397h-4.497a5.629 5.629 0 0 0-5.623 5.622v4.052a11.744 11.744 0 0 1 7.79 9.842c2.69.8 4.843 2.747 5.97 5.223h.858v2.25h-.155a9.52 9.52 0 0 1 .155 1.686 9.535 9.535 0 0 1-2.847 6.808 9.431 9.431 0 0 1 .598 3.312c0 5.271-4.287 9.56-9.558 9.56a9.424 9.424 0 0 1-4.9-1.359A9.48 9.48 0 0 1 37.952 70a9.49 9.49 0 0 1-7.84-4.1 9.482 9.482 0 0 1-5.654 1.851 9.454 9.454 0 0 1-5.16-1.523 9.335 9.335 0 0 1-1.223.27c-.078.013-.155.027-.233.037a9.702 9.702 0 0 1-1.255.092c-5.27 0-9.558-4.288-9.558-9.558a9.41 9.41 0 0 1 .65-3.45 9.573 9.573 0 0 1-1.775-5.547c0-4.251 2.833-7.979 6.845-9.165a9.536 9.536 0 0 1 9.46-8.265c.872 0 1.74.122 2.587.364.405-.45.86-.842 1.35-1.185v-8.175a4.503 4.503 0 0 0-4.499-4.498H14.9a4.503 4.503 0 0 0-4.498 4.498v2.25a4.503 4.503 0 0 1-4.498 4.498H3.654l2.024 2.698-1.799 1.35L0 27.268l3.88-5.172 1.8 1.35-2.025 2.698h2.25c1.24 0 2.248-1.009 2.248-2.249v-2.249A6.753 6.753 0 0 1 14.9 14.9h3.374v-2.25h2.249v2.25h1.124a6.754 6.754 0 0 1 6.747 6.747v7.087a7.819 7.819 0 0 1 2.25-.34 7.87 7.87 0 0 1 5.736 2.482 11.676 11.676 0 0 1 7.195-2.482c.575 0 1.135.053 1.687.132v-3.506h-1.32l.041-2.249h1.61c.972-3.373 3.983-5.623 7.54-5.623h4.498c3.1 0 5.623-2.522 5.623-5.622v-7.87l-2.699 2.023-1.35-1.8 5.174-3.88 5.172 3.88-1.349 1.8-2.699-2.025v7.872c0 4.34-3.532 7.872-7.871 7.872zM47.51 31.492v3.648c0 4.34-3.532 7.87-7.872 7.87h-1.124v-2.248h1.124c3.1 0 5.623-2.522 5.623-5.622v-4.344a9.565 9.565 0 0 0-8.322 2.502l-.645.548c-1.547 1.742-2.559 4.007-2.559 6.354 0 5.27 4.779 9.558 9.277 9.558v2.249c-5.622 0-11.526-5.296-11.526-11.807 0-2.878 1.344-5.655 3.228-7.799a5.606 5.606 0 0 0-4.072-1.76 5.57 5.57 0 0 0-2.249.486v7.386h-2.249V32.91c-.018.024-.038.043-.055.067l-.503.695-.805-.303a7.252 7.252 0 0 0-2.572-.477 7.32 7.32 0 0 0-1.687.203v3.17h-2.25v-2.222a7.291 7.291 0 0 0-3.354 5.815l-.04.877-.862.172c-3.398.682-5.864 3.695-5.864 7.165 0 1.702.598 3.358 1.686 4.667l.459.554-.308.648a7.24 7.24 0 0 0-.712 3.128c0 4.03 3.279 7.309 7.309 7.309.403 0 .805-.04 1.207-.108l.08-.012a7.578 7.578 0 0 0 1.202-.325c2.806-1.023 4.82-3.71 4.82-6.864a7.302 7.302 0 0 0-3.91-6.474l1.049-1.99a9.533 9.533 0 0 1 4.638 5.544 7.27 7.27 0 0 0 3.722-1.812l1.52 1.659a9.52 9.52 0 0 1-4.818 2.364c.017.236.048.47.048.709 0 3.31-1.69 6.23-4.255 7.945a7.21 7.21 0 0 0 2.569.489c1.942 0 3.77-.755 5.149-2.122l1.107-1.101.693 1.398a7.264 7.264 0 0 0 6.545 4.073 7.245 7.245 0 0 0 5.682-2.724 9.518 9.518 0 0 1-2.859-6.198l2.245-.148a7.285 7.285 0 0 0 2.362 4.92l.45.35a7.233 7.233 0 0 0 4.49 1.552c3.944 0 7.16-3.144 7.295-7.056-.135-4.315-3.072-7.01-6.808-7.256l.147-2.104c2.937.195 5.497 1.556 7.114 3.782a7.268 7.268 0 0 0 1.81-4.796c0-.58-.093-1.14-.225-1.687h-.901v-2.164c-1.039-1.663-2.716-2.905-4.739-3.312l-.87-.174-.032-.887a9.513 9.513 0 0 0-5.603-8.356zm4.498 12.644h3.374v2.25h-3.374zm5.623-21.366h3.373v2.25h-3.373zm-20.222-1.545l1.92-1.17a5.717 5.717 0 0 0 1.99 1.952l-1.133 1.942a7.96 7.96 0 0 1-2.777-2.724zm-1.144-7.45h2.249l.005 3.474-2.246.25a7.823 7.823 0 0 1-.008-.352zm0-6.748h2.249v3.374h-2.25zm30.592 34.517l1.891 1.219a7.977 7.977 0 0 1-2.846 2.653l-1.083-1.97a5.733 5.733 0 0 0 2.038-1.902zm.894-6.404h2.25v3.373c0 .186-.008.37-.02.553l-2.244-.156c.01-.133.014-.264.014-.397zM50.883 22.77h3.374v2.25h-3.374zM70 30.642v1.124h-2.249v-1.124c0-.494-.065-.986-.193-1.46l2.17-.587c.181.666.272 1.355.272 2.047zm-3.813-3.882a5.685 5.685 0 0 0-2.36-1.479l.686-2.141a7.917 7.917 0 0 1 3.299 2.066zM33.567 5.678l-1.35-1.8 5.172-3.88 5.173 3.88-1.35 1.8-2.698-2.025h-2.25zm-15.294.224h2.249v3.374h-2.25zm0 20.241h2.249v3.374h-2.25zm0-6.746h2.249v3.373h-2.25zm0 20.24h2.249v3.374h-2.25zm-2.7-33.96L14.226 3.88l5.172-3.88 5.173 3.88-1.35 1.799-3.823-2.868z"/></g></g></svg>