<svg xmlns="http://www.w3.org/2000/svg" width="70" height="70" viewBox="0 0 70 70"><g><g><path d="M65.921 62.466l-7.676 4.89v1.476c0 .645-.522 1.167-1.166 1.167H45.42a1.167 1.167 0 0 1-1.165-1.167V56.04c0-.38.184-.736.495-.954l9.385-6.606a4.455 4.455 0 0 1 3.156-.779l2.751-15.6A4.955 4.955 0 0 1 64.927 28a4.97 4.97 0 0 1 4.96 4.96l.017 21.287a9.873 9.873 0 0 1-3.983 8.22zm1.651-8.219l-.016-21.285a2.629 2.629 0 0 0-5.218-.455l-2.845 16.13a4.598 4.598 0 0 1 .793.818 4.479 4.479 0 0 1-.894 6.267l-6.277 4.71-1.4-1.866 6.277-4.71a2.144 2.144 0 0 0-2.517-3.468l-8.89 6.256v11.021h9.328v-.95c0-.398.204-.77.54-.983l8.191-5.22a7.519 7.519 0 0 0 2.928-6.265zM25.6 56.04v12.793c0 .645-.522 1.167-1.166 1.167h-11.66a1.167 1.167 0 0 1-1.166-1.167v-1.475l-7.652-4.875a9.879 9.879 0 0 1-4.007-8.235l.016-21.288a4.96 4.96 0 0 1 9.847-.858l2.751 15.6a4.455 4.455 0 0 1 3.157.778l9.384 6.606c.311.218.496.574.496.954zm-2.332 11.626v-11.02l-8.89-6.257a2.141 2.141 0 0 0-2.944.467c-.71.946-.52 2.29.427 3.001l6.277 4.71-1.4 1.866-6.276-4.71a4.478 4.478 0 0 1-.101-7.085l-2.845-16.13a2.63 2.63 0 0 0-5.219.455L2.28 54.248a7.527 7.527 0 0 0 2.952 6.281l8.168 5.203c.336.214.54.585.54.984v.95zM39.623.451l-.445 2.29a22.336 22.336 0 0 0-4.252-.408L34.853 0h.073c1.577 0 3.15.15 4.697.45zm-9.087 2.317a22.05 22.05 0 0 0-4.148 1.27l-.9-2.152c1.48-.619 3.017-1.09 4.59-1.406zm21.712 39.047a24.714 24.714 0 0 1-3.704 3.048l-1.3-1.938a22.357 22.357 0 0 0 3.355-2.76zm-3.79-37.737l-1.29 1.943a22.193 22.193 0 0 0-3.834-2.036l.886-2.158a24.442 24.442 0 0 1 4.237 2.251zM59.41 24.4v.1c0 1.603-.156 3.201-.465 4.775l-2.288-.453c.28-1.423.421-2.872.421-4.323zm-4.177-13.592l-1.932 1.306a22.402 22.402 0 0 0-2.77-3.347l1.644-1.656a24.686 24.686 0 0 1 3.058 3.697zM44.316 47.132a24.404 24.404 0 0 1-4.591 1.397l-.454-2.289a22.036 22.036 0 0 0 4.15-1.262zm14.61-27.51l-2.285.462a22.09 22.09 0 0 0-1.276-4.15l2.151-.902a24.442 24.442 0 0 1 1.41 4.59zM57.555 33.87a24.536 24.536 0 0 1-2.263 4.233l-1.94-1.296a22.212 22.212 0 0 0 2.049-3.83zM34.95 48.999h-.025c-1.593 0-3.183-.154-4.747-.46l.45-2.29c1.415.278 2.854.417 4.297.417zm-15.664-8.8L17.64 41.85a24.729 24.729 0 0 1-3.051-3.704l1.935-1.302a22.335 22.335 0 0 0 2.763 3.353zm3.28-34.1a22.277 22.277 0 0 0-3.347 2.767l-1.653-1.645a24.641 24.641 0 0 1 3.698-3.058zm-9.382 14.122a22.386 22.386 0 0 0-.412 4.278l-2.332.049v-.049c0-1.586.153-3.168.455-4.724zm3.288-7.99a22.058 22.058 0 0 0-2.04 3.833l-2.156-.888a24.521 24.521 0 0 1 2.254-4.238zm-2.004 20.79l-2.152.898a24.385 24.385 0 0 1-1.4-4.594l2.286-.457a22.06 22.06 0 0 0 1.266 4.153zm12.006 11.975l-.89 2.157a24.531 24.531 0 0 1-4.233-2.26l1.294-1.941a22.085 22.085 0 0 0 3.829 2.044zm24.512-20.497a8.316 8.316 0 0 1 1.428 4.667 8.102 8.102 0 0 1-5.668 7.824 8.028 8.028 0 0 1-7.88 7.343 7.66 7.66 0 0 1-3.94-1.089 7.66 7.66 0 0 1-3.941 1.089 7.785 7.785 0 0 1-7.656-7.096c-3.67-.649-5.893-4.49-5.893-8.07a8.316 8.316 0 0 1 1.429-4.668 8.315 8.315 0 0 1-1.429-4.666 8.104 8.104 0 0 1 5.669-7.825 8.028 8.028 0 0 1 7.88-7.342 7.66 7.66 0 0 1 3.94 1.087 7.66 7.66 0 0 1 3.94-1.087 7.784 7.784 0 0 1 7.656 7.096c3.67.649 5.893 4.489 5.893 8.07a8.317 8.317 0 0 1-1.428 4.667zM33.76 15.166V7.793A5.345 5.345 0 0 0 30.986 7a5.721 5.721 0 0 0-5.588 5.834c.007.59-.39 1.108-.962 1.254a5.74 5.74 0 0 0-4.667 5.746 5.963 5.963 0 0 0 1.445 3.902c.38.438.38 1.09 0 1.528a5.968 5.968 0 0 0-1.445 3.903c0 2.817 1.874 5.833 4.664 5.833a2.332 2.332 0 0 0 0-4.666v-2.334a4.654 4.654 0 0 1 1.254 9.14A5.454 5.454 0 0 0 30.986 42c.98-.005 1.94-.28 2.774-.795v-22.02c-.705.42-1.51.644-2.332.649a4.67 4.67 0 0 1-4.663-4.667h2.331a2.333 2.333 0 1 0 4.664 0zm14.878 8.57a5.966 5.966 0 0 0 1.445-3.903c0-2.817-1.874-5.834-4.663-5.834a2.333 2.333 0 1 0 0 4.667V21a4.655 4.655 0 0 1-1.254-9.141 5.455 5.455 0 0 0-5.3-4.86 5.35 5.35 0 0 0-2.774.794v16.19a4.608 4.608 0 0 1 2.332-.65 4.67 4.67 0 0 1 4.664 4.666h-2.332a2.332 2.332 0 1 0-4.664 0v13.206c.835.514 1.794.79 2.774.794a5.72 5.72 0 0 0 5.589-5.833c-.008-.59.39-1.108.961-1.254a5.74 5.74 0 0 0 4.667-5.746 5.967 5.967 0 0 0-1.445-3.903 1.165 1.165 0 0 1 0-1.527z"/></g></g></svg>