<svg xmlns="http://www.w3.org/2000/svg" width="70" height="63" viewBox="0 0 70 63"><g><g><path d="M24.53 29.188l-11.4 6.758 11.4 6.76c.53.313.705.996.389 1.524a1.118 1.118 0 0 1-1.531.385l-13.013-7.713a1.112 1.112 0 0 1 0-1.91l13.013-7.715a1.12 1.12 0 0 1 1.53.386c.317.528.143 1.21-.387 1.525zm20.94 13.517l11.4-6.759-11.4-6.758a1.11 1.11 0 0 1-.389-1.525 1.12 1.12 0 0 1 1.531-.386l13.013 7.714a1.11 1.11 0 0 1 0 1.91l-13.013 7.714a1.118 1.118 0 0 1-1.531-.386 1.109 1.109 0 0 1 .388-1.524zM40.826 27.31a1.11 1.11 0 0 1 .305 1.543L30.722 44.28a1.117 1.117 0 0 1-1.55.303 1.108 1.108 0 0 1-.304-1.542l10.41-15.429a1.121 1.121 0 0 1 1.55-.303zM70 1.11v44.47c0 .615-.5 1.112-1.117 1.112a1.114 1.114 0 0 1-1.117-1.111V11.117H2.234v49.659h65.532V50.028c0-.613.5-1.111 1.117-1.111S70 49.415 70 50.028v11.86c0 .613-.5 1.111-1.117 1.111H1.117A1.115 1.115 0 0 1 0 61.887V1.111C0 .497.5-.001 1.117-.001h67.766C69.5 0 70 .497 70 1.111zM2.234 8.894h41.33v-6.67H2.234zm65.532 0v-6.67H45.798v6.67zm-9.755-3.336a1.19 1.19 0 0 1-1.192 1.186 1.19 1.19 0 0 1-1.191-1.186 1.19 1.19 0 0 1 1.191-1.186 1.19 1.19 0 0 1 1.192 1.186zm-6.107 0a1.19 1.19 0 0 1-1.191 1.186 1.19 1.19 0 0 1-1.192-1.186 1.19 1.19 0 0 1 1.192-1.186 1.19 1.19 0 0 1 1.191 1.186zm12.213 0a1.19 1.19 0 0 1-1.192 1.186 1.19 1.19 0 0 1-1.191-1.186 1.19 1.19 0 0 1 1.191-1.186 1.19 1.19 0 0 1 1.192 1.186z"/></g></g></svg>