<?xml version="1.0" encoding="iso-8859-1"?>
<!-- Generator: Adobe Illustrator 19.0.0, SVG Export Plug-In . SVG Version: 6.00 Build 0)  -->
<svg version="1.1" fill="#40c4f4" width="62" height="70" id="Layer_1" xmlns="http://www.w3.org/2000/svg" xmlns:xlink="http://www.w3.org/1999/xlink" x="0px" y="0px"
	 viewBox="0 0 512.001 512.001" style="enable-background:new 0 0 512.001 512.001;" xml:space="preserve">
<g>
	<g>
		<path d="M472.118,68.801c4.142,0,7.5-3.357,7.5-7.5V22.188C479.618,9.954,469.664,0,457.429,0H161.204
			c-12.235,0-22.188,9.954-22.188,22.188V51.41h-31.67c-12.235,0-22.188,9.954-22.188,22.19v29.222H54.71
			c-12.235,0-22.189,9.954-22.189,22.188c0,277.029-0.965,265.619,2.197,268.782c123.213,123.212,116.894,118.18,121.288,118.18
			h43.425c4.142,0,7.5-3.357,7.5-7.5c0-4.143-3.358-7.5-7.5-7.5h-35.925v-93.794c0-12.235-9.954-22.19-22.188-22.19H47.521V125.011
			c0-3.964,3.225-7.188,7.189-7.188c13.259,0,285.342,0,296.224,0c3.964,0,7.189,3.225,7.189,7.188c0,1.838,0,351.765,0,364.773
			c0,3.964-3.226,7.188-7.189,7.188H226.098c-4.142,0-7.5,3.357-7.5,7.5c0,4.143,3.358,7.5,7.5,7.5h124.836
			c12.235,0,22.189-9.954,22.189-22.188v-29.222h30.445c12.235,0,22.19-9.954,22.19-22.189V409.15h31.67
			c12.234,0,22.189-9.954,22.189-22.188V87.296c0-4.143-3.358-7.5-7.5-7.5c-4.143,0-7.5,3.357-7.5,7.5v299.666
			c0,3.964-3.225,7.188-7.189,7.188h-31.67V73.6c0-12.235-9.954-22.19-22.19-22.19H154.016V22.188c0-3.964,3.225-7.188,7.188-7.188
			h296.225c3.964,0,7.189,3.225,7.189,7.188V61.3C464.618,65.443,467.975,68.801,472.118,68.801z M141.317,395.988
			c3.964,0,7.188,3.226,7.188,7.19v83.187c-2.607-2.607-79.451-79.45-90.377-90.377H141.317z M403.569,66.41
			c3.964,0,7.19,3.226,7.19,7.189c0,1.838,0,351.764,0,364.772c0,3.964-3.226,7.189-7.19,7.189h-30.445v-320.55
			c0-12.234-9.954-22.188-22.189-22.188H100.157V73.6c0-3.964,3.225-7.189,7.188-7.189C117.452,66.41,393.441,66.41,403.569,66.41z"
			/>
	</g>
</g>
<g>
</g>
<g>
</g>
<g>
</g>
<g>
</g>
<g>
</g>
<g>
</g>
<g>
</g>
<g>
</g>
<g>
</g>
<g>
</g>
<g>
</g>
<g>
</g>
<g>
</g>
<g>
</g>
<g>
</g>
</svg>
