<svg xmlns="http://www.w3.org/2000/svg" width="200" height="55" viewBox="0 0 200 55"><g><g><g><path fill="#fff" d="M174.8 39.826L170 52.399a5.802 5.802 0 0 1-.542 1.057 3.425 3.425 0 0 1-.748.818 3.271 3.271 0 0 1-1.058.535c-.413.127-.903.192-1.471.192-.12 0-.327-.01-.62-.027-.292-.016-.631-.05-1.019-.1-.387-.052-.8-.122-1.238-.205a8.008 8.008 0 0 1-1.277-.359l.567-3.188c.086.018.215.04.387.066a24.922 24.922 0 0 0 1.07.14c.165.017.28.026.35.026.602.016 1.027-.056 1.277-.218.249-.161.468-.471.658-.93l.516-1.327h-2.27l-.375-1.083a97.784 97.784 0 0 0-.555-1.543c-.206-.561-.417-1.148-.632-1.76a156.64 156.64 0 0 0-1.2-3.314c-.172-.46-.3-.827-.387-1.099h-1.264v-3.289h4.877l2.838 9.462h.103a6.48 6.48 0 0 1 .194-.613c.111-.322.236-.704.374-1.147.137-.443.288-.914.451-1.416l.465-1.427c.146-.452.275-.843.387-1.174l.22-.65h-1.213V36.79h7.095v3.035zm-17.237 9.818c-.31.033-.602.06-.877.078-.276.016-.49.024-.645.024-.242 0-.478-.008-.71-.024a2.96 2.96 0 0 1-.697-.14 2.089 2.089 0 0 1-.658-.37c-.206-.17-.387-.4-.542-.689l-2.245-4.54-1.238.918v1.479h1.187v2.985H143.5V46.38h1.548V34.01h-1.625v-2.907h6.528v9.666l2.296-1.785v-2.17h6.27V39.8h-1.754l-2.013 1.505 2.787 5.125 1.755.306v2.578a4.955 4.955 0 0 1-.813.203c-.301.05-.606.094-.916.127zm-23.589.027c-1.118 0-2.275-.09-3.47-.27a14.767 14.767 0 0 1-3.42-.93c0-.764-.004-1.538-.012-2.32-.01-.783-.013-1.565-.013-2.347h3.38l.026 1.861c.258.103.533.184.826.243.292.06.584.11.877.154a10.864 10.864 0 0 0 1.496.114c1.05 0 1.785-.169 2.207-.51.42-.34.632-.749.632-1.225 0-.424-.12-.747-.361-.969-.242-.221-.568-.4-.981-.534-1.204-.391-2.31-.754-3.316-1.083-1.006-.334-1.87-.703-2.593-1.11-.723-.408-1.282-.902-1.677-1.481-.396-.576-.594-1.316-.594-2.218 0-1.734.624-3.09 1.871-4.068 1.247-.977 3.1-1.467 5.56-1.467.482 0 .994.022 1.536.065.542.042 1.084.11 1.626.204.541.093 1.07.217 1.586.37.517.153.998.33 1.446.535 0 .749.004 1.488.012 2.22.009.728.013 1.47.013 2.218H137.2c0-.307-.004-.614-.013-.92a30.896 30.896 0 0 1-.012-.891 5.357 5.357 0 0 0-1.252-.305 9.125 9.125 0 0 0-1.226-.102c-.911 0-1.557.16-1.935.483-.378.323-.567.697-.567 1.12 0 .292.103.546.31.767.206.221.48.417.825.587.344.171.735.327 1.174.471.439.146.89.286 1.355.421.877.255 1.69.523 2.438.803.748.28 1.402.624 1.961 1.033.559.41.998.907 1.316 1.493.318.586.477 1.314.477 2.18 0 1.753-.67 3.09-2.012 4.018-1.342.926-3.363 1.39-6.064 1.39zm-9.883-.319c-.24.043-.469.076-.684.102-.215.025-.4.037-.554.037-.482 0-.86-.093-1.136-.279-.275-.187-.421-.605-.438-1.25-.018 0-.026-.005-.026-.013 0-.01-.009-.012-.026-.012a7.36 7.36 0 0 1-1.367.942c-.43.222-.83.383-1.2.486-.37.101-.701.16-.994.177-.292.017-.533.026-.722.026-.723 0-1.32-.119-1.794-.356-.473-.24-.847-.536-1.122-.893a3.113 3.113 0 0 1-.568-1.16 4.856 4.856 0 0 1-.155-1.162c0-1.071.392-1.933 1.175-2.589.782-.654 1.965-1.032 3.547-1.134l3.2-.204v-.816c0-1.072-.19-1.81-.568-2.219-.378-.409-1.083-.613-2.115-.613-.62 0-1.26.061-1.923.18-.662.119-1.312.29-1.948.51a12.601 12.601 0 0 1-.232-.701 78.5 78.5 0 0 1-.207-.7 11.115 11.115 0 0 1 2.349-.743c.842-.168 1.66-.253 2.45-.253 1.325 0 2.357.306 3.097.917.74.613 1.11 1.684 1.11 3.214v6.938h1.987l.129 1.198a2.573 2.573 0 0 1-.568.217c-.224.06-.456.11-.697.153zm-2.89-5.93l-3.148.205c-.825.05-1.453.275-1.883.675a1.95 1.95 0 0 0-.645 1.492c0 .73.18 1.263.541 1.593.362.332.955.498 1.78.498.534 0 1.106-.136 1.717-.409a6.024 6.024 0 0 0 1.638-1.07zm-8.36-4.753a.76.76 0 0 0-.396-.095 3.98 3.98 0 0 0-1.226.205 8.593 8.593 0 0 0-1.238.508c-.405.206-.783.426-1.136.665a14.59 14.59 0 0 0-.916.664v7.168h1.987v1.58h-5.935v-1.58h1.858v-9.233h-1.832v-1.632h3.87v1.733h.052c.258-.203.564-.425.916-.663.353-.237.731-.458 1.136-.661a8.61 8.61 0 0 1 1.238-.512c.422-.135.83-.204 1.226-.204.207 0 .365.051.477.152.112.103.168.29.168.564 0 .288-.06.632-.18 1.032-.021.07-.044.178-.068.31zm-12.214-.374c.292.307.52.707.684 1.2.163.492.245 1.003.245 1.53 0 .662-.133 1.257-.4 1.784a3.964 3.964 0 0 1-1.096 1.34 5.032 5.032 0 0 1-1.665.84 7.275 7.275 0 0 1-2.129.294h-1.393c-.654 0-1.153.055-1.497.164-.344.109-.516.356-.516.742 0 .285.12.498.362.64.24.144.558.214.954.214h3.252c1.548 0 2.739.32 3.573.96.835.64 1.252 1.574 1.252 2.802 0 1.211-.534 2.19-1.6 2.942-1.067.751-2.59 1.126-4.567 1.126-1.032 0-1.893-.097-2.58-.294-.689-.195-1.239-.46-1.652-.791-.413-.332-.705-.715-.877-1.148a3.678 3.678 0 0 1-.258-1.365c0-.733.18-1.358.542-1.877.36-.519.73-.872 1.11-1.06-.517-.1-.904-.317-1.162-.648-.258-.333-.387-.752-.387-1.26 0-.376.073-.689.22-.944.145-.254.326-.458.541-.611.215-.153.447-.272.697-.357a4.32 4.32 0 0 1 .684-.178c-.448-.205-.856-.56-1.226-1.072-.37-.509-.555-1.232-.555-2.168 0-.816.15-1.51.452-2.08.3-.568.692-1.03 1.174-1.388a4.8 4.8 0 0 1 1.625-.778 6.923 6.923 0 0 1 1.807-.242c.412 0 .825.03 1.238.09.413.06.791.131 1.136.217h4.077v1.326h-2.013zm-7.676 13.403c.094.28.275.526.542.74.266.211.632.387 1.096.521.465.136 1.067.206 1.806.206 1.239 0 2.164-.213 2.774-.64.61-.424.916-.984.916-1.682 0-.254-.047-.514-.142-.778a1.839 1.839 0 0 0-.477-.713c-.224-.213-.529-.388-.916-.523-.387-.137-.864-.204-1.432-.204h-2.813c-.172.051-.348.152-.529.306-.18.153-.34.33-.477.535a3.51 3.51 0 0 0-.348.662 1.918 1.918 0 0 0-.142.715c0 .29.047.574.142.855zm6.322-11.565a2.325 2.325 0 0 0-.504-.894 2.92 2.92 0 0 0-.954-.688c-.396-.188-.887-.28-1.471-.28-.98 0-1.725.246-2.232.738-.508.493-.761 1.165-.761 2.015 0 .816.236 1.467.71 1.95.472.486 1.148.727 2.025.727.963 0 1.758-.223 2.387-.675.627-.45.941-1.126.941-2.027a3.13 3.13 0 0 0-.141-.866zM80.81 45.36c.103.51.287.956.554 1.339a2.76 2.76 0 0 0 1.084.906c.456.22 1.036.332 1.742.332.74 0 1.406-.074 2-.217a14.987 14.987 0 0 0 1.974-.65l.567 1.35c-.757.391-1.518.681-2.283.868-.766.187-1.57.28-2.413.28-1.118 0-2.039-.178-2.761-.535-.722-.357-1.29-.833-1.703-1.428a5.426 5.426 0 0 1-.852-2.041 12.062 12.062 0 0 1-.232-2.397c0-.562.069-1.216.207-1.964a6.453 6.453 0 0 1 .8-2.128c.395-.672.954-1.246 1.677-1.722.722-.477 1.668-.715 2.838-.715.809 0 1.497.11 2.064.33.568.223 1.037.512 1.407.869.37.357.658.755.864 1.198a6.87 6.87 0 0 1 .645 2.576c.017.391.026.714.026.969V43.7h-8.36c0 .595.051 1.148.155 1.66zm6.167-3.24a9.148 9.148 0 0 0-.168-1.516 3.396 3.396 0 0 0-.49-1.225 2.407 2.407 0 0 0-.916-.815c-.379-.196-.852-.294-1.42-.294-.55 0-1.028.107-1.432.32a2.887 2.887 0 0 0-.993.84 3.889 3.889 0 0 0-.594 1.224 6.783 6.783 0 0 0-.258 1.466zm-13.315 7.371c-1.225 0-2.1-.254-2.622-.765-.523-.51-.784-1.274-.784-2.296V38.55h-1.832v-1.223l1.91-.587.679-2.756 1.36-.229v3.163h3.792v1.632h-3.819v7.14c0 .306.017.582.052.829.034.247.112.46.232.639.12.178.292.317.516.42.224.1.533.151.93.151.309 0 .661-.029 1.057-.088.396-.059.843-.156 1.342-.294l.387 1.454a6.835 6.835 0 0 1-1.561.512 8.154 8.154 0 0 1-1.639.177zm-8.214 0c-.679 0-1.145-.156-1.397-.471-.253-.315-.379-.788-.379-1.415v-6.453a8.96 8.96 0 0 0-.065-1.135 2.035 2.035 0 0 0-.283-.841c-.147-.23-.366-.4-.658-.511-.293-.11-.689-.166-1.187-.166-.603 0-1.256.133-1.961.396a12.47 12.47 0 0 0-1.858.855v9.615h-2.09V38.55h-1.884v-1.632h3.974v1.122a10.06 10.06 0 0 1 2.278-1.033c.793-.247 1.51-.37 2.148-.37.828 0 1.488.114 1.98.344.492.23.863.528 1.114.892.25.366.41.769.478 1.212.07.443.104.877.104 1.3l.026 7.398h1.935v1.249a4.62 4.62 0 0 1-1.161.344 6.798 6.798 0 0 1-1.114.114zm-14.94.026c-.603 0-1.045-.122-1.33-.371-.283-.245-.434-.717-.45-1.416v-9.179h-1.317v-1.607h3.406v10.84h1.884v1.249a4.959 4.959 0 0 1-1.122.357 5.59 5.59 0 0 1-1.071.127zm-.826-14.51c-.379 0-.701-.137-.968-.409a1.308 1.308 0 0 1-.4-.944c0-.392.134-.718.4-.98.267-.265.59-.397.968-.397.396 0 .727.132.993.396.267.263.4.589.4.981 0 .357-.133.672-.4.944a1.338 1.338 0 0 1-.993.409z"/></g><g><path fill="#40c4f4" d="M98.092 30.855a20.232 20.232 0 0 0 1.073-6.47c0-11.276-9.193-20.417-20.533-20.417-10.415 0-19.006 7.715-20.34 17.707l.01.028c-.012.09-.036.175-.047.265a13.484 13.484 0 0 0-3.631-2.628l.002-.012a13.497 13.497 0 0 0-6.043-1.418c-7.468 0-13.522 6.02-13.522 13.443 0 2.747.833 5.3 2.255 7.428a10.208 10.208 0 0 0-.903-.372l.011.01a9.97 9.97 0 0 0-3.366-.592 8.93 8.93 0 0 0-.726.036l-.005-.01c-5.19.372-9.285 4.677-9.285 9.932 0 .681.07 1.349.201 1.992h-9.51a7.006 7.006 0 0 1-6.717 4.979c-3.872 0-7.011-3.122-7.011-6.971 0-3.85 3.139-6.97 7.01-6.97 3.177 0 5.856 2.1 6.718 4.979h5.302l.125.124c.837-6.214 5.797-11.12 12.053-11.94l.05.043c-.137-.87-.208-1.76-.208-2.668 0-9.623 7.848-17.427 17.528-17.427 2.571 0 5.003.567 7.198 1.561A24.537 24.537 0 0 1 78.631-.014c13.554 0 24.54 10.923 24.54 24.398 0 2.243-.327 4.408-.9 6.471zM7.016 43.801c-2.213 0-4.007 1.783-4.007 3.984 0 2.199 1.794 3.983 4.007 3.983 2.213 0 4.006-1.784 4.006-3.983 0-2.2-1.793-3.984-4.006-3.984zm170.755 5.976l1.511-3.983h6.98a7.01 7.01 0 0 1 6.722-4.98c3.872 0 7.011 3.12 7.011 6.97 0 3.85-3.139 6.972-7.011 6.972a7.01 7.01 0 0 1-6.72-4.98zm15.213-5.976c-2.213 0-4.007 1.783-4.007 3.984 0 2.199 1.794 3.983 4.007 3.983 2.213 0 4.006-1.784 4.006-3.983 0-2.2-1.793-3.984-4.006-3.984z"/></g></g></g></svg>