<?xml version="1.0" encoding="iso-8859-1"?>
<!-- Generator: Adobe Illustrator 19.0.0, SVG Export Plug-In . SVG Version: 6.00 Build 0)  -->
<svg version="1.1" id="Capa_1" xmlns="http://www.w3.org/2000/svg" xmlns:xlink="http://www.w3.org/1999/xlink" x="0px" y="0px"
	 viewBox="0 0 512 512" style="enable-background:new 0 0 512 512;" xml:space="preserve">
<g>
	<g>
		<polygon points="352.661,198.859 352.661,213.963 429.687,213.963 429.687,401.243 82.313,401.243 82.313,213.963 
			159.339,213.963 159.339,198.859 67.209,198.859 67.209,416.346 444.791,416.346 444.791,198.859 		"/>
	</g>
</g>
<g>
	<g>
		<path d="M485.066,441.518V196.342c0-20.82-16.938-37.758-37.758-37.758H229.821v15.103h217.487
			c12.492,0,22.655,10.163,22.655,22.655v245.176H316.916v7.552c0,3.609-2.936,6.545-6.545,6.545H201.628
			c-3.609,0-6.545-2.936-6.545-6.545v-7.552H42.037V196.342c0-12.491,10.162-22.655,22.655-22.655h94.647v-15.103H64.692
			c-20.82,0-37.758,16.938-37.758,37.758v245.176H1.762v32.724C1.762,495.062,18.7,512,39.52,512h432.96
			c20.82,0,37.758-16.938,37.758-37.758v-32.724H485.066z M495.135,474.242c0,12.491-10.162,22.655-22.655,22.655H39.52
			c-12.492,0-22.655-10.164-22.655-22.655v-17.62H181.34c3.071,8.224,11.007,14.096,20.289,14.096h108.743
			c9.281,0,17.219-5.872,20.289-14.096h164.474V474.242z"/>
	</g>
</g>
<g>
	<g>
		<path d="M294.765,245.573v50.451c0,21.375-17.39,38.765-38.765,38.765s-38.765-17.39-38.765-38.765v-146.25
			c16.068-8.651,25.999-25.905,25.117-44.446c-1.152-24.204-20.235-43.715-44.389-45.384c-13.423-0.929-26.213,3.598-36.009,12.74
			c-9.66,9.016-15.2,21.762-15.2,34.97c0,17.829,9.725,33.851,25.172,42.127v146.243c0,46.359,37.716,84.075,84.075,84.075
			s84.075-37.716,84.075-84.075v-95.761L294.765,245.573z M324.971,296.024c0,38.031-30.94,68.971-68.971,68.971
			c-38.031,0-68.971-30.941-68.971-68.971V139.901l-4.717-1.909c-12.426-5.032-20.455-16.94-20.455-30.337
			c0-9.17,3.694-17.669,10.402-23.93c6.127-5.719,13.973-8.795,22.306-8.795c0.78,0,1.568,0.026,2.356,0.082
			c16.241,1.122,29.569,14.754,30.344,31.034c0.661,13.895-7.544,26.733-20.417,31.945l-4.717,1.91v156.122
			c0,29.703,24.165,53.868,53.868,53.868c29.703,0,53.868-24.165,53.868-53.868v-44.196l15.103-15.103V296.024z"/>
	</g>
</g>
<g>
	<g>
		<rect x="187.532" y="100.104" width="15.103" height="15.103"/>
	</g>
</g>
<g>
	<g>
		<rect x="187.532" y="30.206" width="15.103" height="15.103"/>
	</g>
</g>
<g>
	<g>
		<rect x="187.532" width="15.103" height="15.103"/>
	</g>
</g>
<g>
</g>
<g>
</g>
<g>
</g>
<g>
</g>
<g>
</g>
<g>
</g>
<g>
</g>
<g>
</g>
<g>
</g>
<g>
</g>
<g>
</g>
<g>
</g>
<g>
</g>
<g>
</g>
<g>
</g>
</svg>
