<svg id="icons" enable-background="new 0 0 64 64" height="512" viewBox="0 0 64 64" width="512" xmlns="http://www.w3.org/2000/svg"><path d="m63 34.5h-29.815c.413-1.16 1.511-1.998 2.81-2.001.002 0 .004.001.006.001h17c2.757 0 5-2.243 5-5v-5c0-2.757-2.243-5-5-5h-10.052c-.51-5.596-5.222-9.996-10.949-9.996-5.728 0-10.441 4.402-10.949 10h-9.962c-.03-.003-.056-.018-.087-.018-1.654 0-3-1.346-3-3v-4.998c0-1.654 1.346-3 3-3h16.939c.021.001.038.012.059.012 2.757 0 5-2.243 5-5 0-.553-.447-1-1-1s-1 .447-1 1c0 1.641-1.325 2.975-2.961 2.996-.014-.001-.025-.008-.039-.008h-16.998c-2.757 0-5 2.243-5 5v4.998c0 2.695 2.148 4.886 4.821 4.982.06.011.114.035.177.035h10.051c.508 5.598 5.222 10 10.949 10 5.729 0 10.443-4.404 10.949-10.004h10.051c1.654 0 3 1.346 3 3v5c0 1.654-1.346 3-3 3h-16.989c-.004 0-.007-.002-.01-.002-2.415 0-4.436 1.722-4.899 4.002h-30.102c-.553 0-1 .447-1 1v27c0 .553.447 1 1 1h62c.553 0 1-.447 1-1v-27c0-.552-.447-.999-1-.999zm-31-6.996c-4.963 0-9-4.037-9-9s4.037-9 9-9 9 4.037 9 9-4.037 9-9 9zm30 33.996h-60v-25h60z"/><path d="m6 44.5h3c.553 0 1-.447 1-1v-3c0-.553-.447-1-1-1h-3c-.553 0-1 .447-1 1v3c0 .553.447 1 1 1zm1-3h1v1h-1z"/><path d="m16 39.5h-3c-.553 0-1 .447-1 1v3c0 .553.447 1 1 1h3c.553 0 1-.447 1-1v-3c0-.553-.447-1-1-1zm-1 3h-1v-1h1z"/><path d="m20 44.5h3c.553 0 1-.447 1-1v-3c0-.553-.447-1-1-1h-3c-.553 0-1 .447-1 1v3c0 .553.447 1 1 1zm1-3h1v1h-1z"/><path d="m27 44.5h3c.553 0 1-.447 1-1v-3c0-.553-.447-1-1-1h-3c-.553 0-1 .447-1 1v3c0 .553.447 1 1 1zm1-3h1v1h-1z"/><path d="m34 44.5h3c.553 0 1-.447 1-1v-3c0-.553-.447-1-1-1h-3c-.553 0-1 .447-1 1v3c0 .553.447 1 1 1zm1-3h1v1h-1z"/><path d="m41 44.5h3c.553 0 1-.447 1-1v-3c0-.553-.447-1-1-1h-3c-.553 0-1 .447-1 1v3c0 .553.447 1 1 1zm1-3h1v1h-1z"/><path d="m48 44.5h3c.553 0 1-.447 1-1v-3c0-.553-.447-1-1-1h-3c-.553 0-1 .447-1 1v3c0 .553.447 1 1 1zm1-3h1v1h-1z"/><path d="m16 46.5h-10c-.553 0-1 .447-1 1v3c0 .553.447 1 1 1h10c.553 0 1-.447 1-1v-3c0-.553-.447-1-1-1zm-1 3h-8v-1h8z"/><path d="m20 51.5h3c.553 0 1-.447 1-1v-3c0-.553-.447-1-1-1h-3c-.553 0-1 .447-1 1v3c0 .553.447 1 1 1zm1-3h1v1h-1z"/><path d="m27 51.5h3c.553 0 1-.447 1-1v-3c0-.553-.447-1-1-1h-3c-.553 0-1 .447-1 1v3c0 .553.447 1 1 1zm1-3h1v1h-1z"/><path d="m34 51.5h3c.553 0 1-.447 1-1v-3c0-.553-.447-1-1-1h-3c-.553 0-1 .447-1 1v3c0 .553.447 1 1 1zm1-3h1v1h-1z"/><path d="m41 51.5h3c.553 0 1-.447 1-1v-3c0-.553-.447-1-1-1h-3c-.553 0-1 .447-1 1v3c0 .553.447 1 1 1zm1-3h1v1h-1z"/><path d="m48 51.5h3c.553 0 1-.447 1-1v-3c0-.553-.447-1-1-1h-3c-.553 0-1 .447-1 1v3c0 .553.447 1 1 1zm1-3h1v1h-1z"/><path d="m55 51.5h3c.553 0 1-.447 1-1v-10c0-.553-.447-1-1-1h-3c-.553 0-1 .447-1 1v10c0 .553.447 1 1 1zm1-10h1v8h-1z"/><path d="m9 53.5h-3c-.553 0-1 .447-1 1v3c0 .553.447 1 1 1h3c.553 0 1-.447 1-1v-3c0-.553-.447-1-1-1zm-1 3h-1v-1h1z"/><path d="m16 53.5h-3c-.553 0-1 .447-1 1v3c0 .553.447 1 1 1h3c.553 0 1-.447 1-1v-3c0-.553-.447-1-1-1zm-1 3h-1v-1h1z"/><path d="m44 53.5h-24c-.553 0-1 .447-1 1v3c0 .553.447 1 1 1h24c.553 0 1-.447 1-1v-3c0-.553-.447-1-1-1zm-1 3h-22v-1h22z"/><path d="m48 58.5h3c.553 0 1-.447 1-1v-3c0-.553-.447-1-1-1h-3c-.553 0-1 .447-1 1v3c0 .553.447 1 1 1zm1-3h1v1h-1z"/><path d="m55 58.5h3c.553 0 1-.447 1-1v-3c0-.553-.447-1-1-1h-3c-.553 0-1 .447-1 1v3c0 .553.447 1 1 1zm1-3h1v1h-1z"/><path d="m32 12.5c-3.201 0-6.152 2.077-7.895 5.557-.141.281-.141.613 0 .895 1.742 3.479 4.693 5.557 7.895 5.557s6.152-2.077 7.895-5.557c.141-.281.141-.613 0-.895-1.743-3.48-4.694-5.557-7.895-5.557zm0 10.008c-2.295 0-4.46-1.487-5.869-4.004 1.409-2.517 3.574-4.004 5.869-4.004s4.46 1.487 5.869 4.004c-1.409 2.517-3.574 4.004-5.869 4.004z"/><path d="m31.997 15.504c-1.654 0-3 1.346-3 3s1.346 3 3 3 3-1.346 3-3-1.346-3-3-3zm0 4c-.552 0-1-.448-1-1s.448-1 1-1 1 .448 1 1-.448 1-1 1z"/></svg>