<?xml version="1.0" encoding="iso-8859-1"?>
<!-- Generator: Adobe Illustrator 19.0.0, SVG Export Plug-In . SVG Version: 6.00 Build 0)  -->
<svg version="1.1" id="Capa_1" xmlns="http://www.w3.org/2000/svg" xmlns:xlink="http://www.w3.org/1999/xlink" x="0px" y="0px"
	 viewBox="0 0 512 512" style="enable-background:new 0 0 512 512;" xml:space="preserve">
<g>
	<g>
		<path d="M332.327,425.916c8.126-13.657,12.386-29.131,12.386-45.211c0-48.917-39.796-88.713-88.713-88.713
			s-88.713,39.796-88.713,88.713c0,16.08,4.26,31.554,12.386,45.211c-7.716,6.152-12.386,15.556-12.386,25.759
			c0,15.553,10.831,28.623,25.347,32.064V512h126.733v-28.26c14.515-3.441,25.347-16.512,25.347-32.064
			C344.713,441.472,340.043,432.068,332.327,425.916z M318.675,435.328c6.579,2.787,10.83,9.204,10.83,16.347
			c0,9.783-7.96,17.743-17.743,17.743h-7.604v27.374h-12.673v-19.77h-15.208v19.77h-12.673v-19.77h-15.208v19.77h-12.673v-19.77
			h-15.208v19.77h-12.673v-27.374h-7.604c-9.783,0-17.743-7.96-17.743-17.743c0-7.144,4.251-13.56,10.83-16.347l8.81-3.732
			l-5.625-7.74c-9.169-12.616-14.016-27.537-14.016-43.151c0-40.531,32.974-73.505,73.505-73.505s73.505,32.974,73.505,73.505
			c0,15.613-4.846,30.534-14.016,43.151l-5.625,7.74L318.675,435.328z"/>
	</g>
</g>
<g>
	<g>
		<path d="M286.923,369.046h-3.149l-22.198,22.198v3.149c0,13.976,11.37,25.347,25.347,25.347s25.346-11.37,25.346-25.347
			S300.899,369.046,286.923,369.046z M286.923,404.531c-4.632,0-8.549-3.122-9.755-7.372l12.521-12.521
			c4.25,1.206,7.372,5.123,7.372,9.755C297.061,399.983,292.513,404.531,286.923,404.531z"/>
	</g>
</g>
<g>
	<g>
		<path d="M228.226,369.046h-3.149c-13.976,0-25.346,11.37-25.346,25.347s11.37,25.347,25.346,25.347
			c13.976,0,25.347-11.37,25.347-25.347v-3.149L228.226,369.046z M225.077,404.531c-5.59,0-10.139-4.548-10.139-10.139
			c0-4.632,3.122-8.549,7.372-9.755l12.521,12.521C233.626,401.409,229.71,404.531,225.077,404.531z"/>
	</g>
</g>
<g>
	<g>
		<rect x="231.667" y="436.974" width="15.208" height="15.208"/>
	</g>
</g>
<g>
	<g>
		<rect x="265.125" y="436.974" width="15.208" height="15.208"/>
	</g>
</g>
<g>
	<g>
		<path d="M197.703,0v217.98h116.594V0H197.703z M299.089,202.772h-86.178V15.208h86.178V202.772z"/>
	</g>
</g>
<g>
	<g>
		<rect x="225.584" y="172.356" width="60.832" height="15.208"/>
	</g>
</g>
<g>
	<g>
		<rect x="225.584" y="141.941" width="60.832" height="15.208"/>
	</g>
</g>
<g>
	<g>
		<rect x="225.584" y="111.525" width="60.832" height="15.208"/>
	</g>
</g>
<g>
	<g>
		<rect x="233.188" y="30.416" width="15.208" height="15.208"/>
	</g>
</g>
<g>
	<g>
		<rect x="263.604" y="30.416" width="15.208" height="15.208"/>
	</g>
</g>
<g>
	<g>
		<path d="M0,0v217.98h116.594V0H0z M101.386,202.772H15.208V15.208h86.178V202.772z"/>
	</g>
</g>
<g>
	<g>
		<rect x="27.881" y="172.356" width="60.832" height="15.208"/>
	</g>
</g>
<g>
	<g>
		<rect x="27.881" y="141.941" width="60.832" height="15.208"/>
	</g>
</g>
<g>
	<g>
		<rect x="27.881" y="111.525" width="60.832" height="15.208"/>
	</g>
</g>
<g>
	<g>
		<rect x="65.901" y="30.416" width="15.208" height="15.208"/>
	</g>
</g>
<g>
	<g>
		<rect x="35.485" y="30.416" width="15.208" height="15.208"/>
	</g>
</g>
<g>
	<g>
		<path d="M395.406,0v217.98H512V0H395.406z M496.792,202.772h-86.178V15.208h86.178V202.772z"/>
	</g>
</g>
<g>
	<g>
		<rect x="423.287" y="172.356" width="60.832" height="15.208"/>
	</g>
</g>
<g>
	<g>
		<rect x="423.287" y="141.941" width="60.832" height="15.208"/>
	</g>
</g>
<g>
	<g>
		<rect x="423.287" y="111.525" width="60.832" height="15.208"/>
	</g>
</g>
<g>
	<g>
		<rect x="461.307" y="30.416" width="15.208" height="15.208"/>
	</g>
</g>
<g>
	<g>
		<rect x="430.891" y="30.416" width="15.208" height="15.208"/>
	</g>
</g>
<g>
	<g>
		<rect x="248.396" y="240.792" width="15.208" height="28.388"/>
	</g>
</g>
<g>
	<g>
		<polygon points="65.901,360.935 65.901,301.624 50.693,301.624 50.693,376.143 144.475,376.143 144.475,360.935 		"/>
	</g>
</g>
<g>
	<g>
		<rect x="50.693" y="240.792" width="15.208" height="15.208"/>
	</g>
</g>
<g>
	<g>
		<rect x="50.693" y="271.208" width="15.208" height="15.208"/>
	</g>
</g>
<g>
	<g>
		<polygon points="446.099,301.624 446.099,360.935 367.525,360.935 367.525,376.143 461.307,376.143 461.307,301.624 		"/>
	</g>
</g>
<g>
	<g>
		<rect x="446.099" y="240.792" width="15.208" height="15.208"/>
	</g>
</g>
<g>
	<g>
		<rect x="446.099" y="271.208" width="15.208" height="15.208"/>
	</g>
</g>
<g>
</g>
<g>
</g>
<g>
</g>
<g>
</g>
<g>
</g>
<g>
</g>
<g>
</g>
<g>
</g>
<g>
</g>
<g>
</g>
<g>
</g>
<g>
</g>
<g>
</g>
<g>
</g>
<g>
</g>
</svg>
