<?xml version="1.0" encoding="iso-8859-1"?>
<!-- Generator: Adobe Illustrator 19.0.0, SVG Export Plug-In . SVG Version: 6.00 Build 0)  -->
<svg version="1.1" id="Capa_1" xmlns="http://www.w3.org/2000/svg" xmlns:xlink="http://www.w3.org/1999/xlink" x="0px" y="0px"
	 viewBox="0 0 512.001 512.001" style="enable-background:new 0 0 512.001 512.001;" xml:space="preserve">
<g>
	<g>
		<path d="M162.089,462.168c-1.287-3.936-5.524-6.084-9.459-4.796l-19.859,6.495C127.201,454.949,117.302,449,106.036,449
			c-17.369,0-31.5,14.131-31.5,31.5c0,17.369,14.131,31.5,31.5,31.5s31.5-14.131,31.5-31.5c0-0.801-0.04-1.592-0.099-2.378
			l19.854-6.494C161.229,470.34,163.377,466.105,162.089,462.168z M106.036,497c-9.098,0-16.5-7.402-16.5-16.5
			c0-9.098,7.402-16.5,16.5-16.5s16.5,7.402,16.5,16.5C122.536,489.598,115.135,497,106.036,497z"/>
	</g>
</g>
<g>
	<g>
		<path d="M434.5,264H264v-17h119.5c4.143,0,7.5-3.358,7.5-7.5c0-4.142-3.357-7.5-7.5-7.5h-306c-3.584,0-6.5-2.916-6.5-6.5v-72
			c0-3.584,2.916-6.5,6.5-6.5h356c3.584,0,6.5,2.916,6.5,6.5v72c0,3.584-2.916,6.5-6.5,6.5h-18c-4.143,0-7.5,3.358-7.5,7.5
			c0,4.142,3.357,7.5,7.5,7.5h18c11.855,0,21.5-9.645,21.5-21.5v-72c0-11.855-9.645-21.5-21.5-21.5H264v-17h169.5
			c11.855,0,21.5-9.645,21.5-21.5v-72C455,9.645,445.356,0,433.5,0h-356C65.646,0,56,9.645,56,21.5v10.25c0,4.142,3.357,7.5,7.5,7.5
			s7.5-3.358,7.5-7.5V21.5c0-3.584,2.916-6.5,6.5-6.5h356c3.584,0,6.5,2.916,6.5,6.5v72c0,3.584-2.916,6.5-6.5,6.5h-356
			c-3.584,0-6.5-2.916-6.5-6.5V64c0-4.142-3.357-7.5-7.5-7.5S56,59.858,56,64v29.5c0,11.855,9.645,21.5,21.5,21.5H249v17H77.5
			c-11.855,0-21.5,9.645-21.5,21.5v72c0,11.855,9.645,21.5,21.5,21.5H249v17H78.5c-11.855,0-21.5,9.645-21.5,21.5v72
			c0,11.855,9.645,21.5,21.5,21.5h149.506l-23.953,37.762c-2.219,3.498-1.183,8.132,2.315,10.351
			c3.496,2.217,8.133,1.181,10.351-2.316L255.5,363.66l71.361,112.499H184.14l16.512-26.031c2.219-3.498,1.182-8.132-2.315-10.351
			c-3.498-2.219-8.134-1.182-10.351,2.316l-19.921,31.405c-2.247,3.542-2.388,8.025-0.366,11.701
			c2.021,3.676,5.882,5.959,10.077,5.959h155.451c4.195,0,8.057-2.283,10.077-5.959c2.021-3.676,1.881-8.159-0.366-11.701
			L282.995,379H434.5c11.855,0,21.5-9.645,21.5-21.5v-72C456,273.645,446.356,264,434.5,264z M441,357.5c0,3.584-2.916,6.5-6.5,6.5
			H273.479l-8.268-13.035c-2.121-3.343-5.752-5.339-9.711-5.339s-7.59,1.996-9.711,5.34L237.521,364H78.5
			c-3.584,0-6.5-2.916-6.5-6.5v-72c0-3.584,2.916-6.5,6.5-6.5h356c3.584,0,6.5,2.916,6.5,6.5V357.5z"/>
	</g>
</g>
<g>
	<g>
		<path d="M125,34c-12.406,0-22.5,10.093-22.5,22.5S112.594,79,125,79s22.5-10.093,22.5-22.5S137.406,34,125,34z M125,64
			c-4.136,0-7.5-3.364-7.5-7.5s3.364-7.5,7.5-7.5s7.5,3.364,7.5,7.5S129.136,64,125,64z"/>
	</g>
</g>
<g>
	<g>
		<path d="M125,167c-12.406,0-22.5,10.093-22.5,22.5S112.594,212,125,212s22.5-10.093,22.5-22.5S137.406,167,125,167z M125,197
			c-4.136,0-7.5-3.364-7.5-7.5s3.364-7.5,7.5-7.5s7.5,3.364,7.5,7.5S129.136,197,125,197z"/>
	</g>
</g>
<g>
	<g>
		<path d="M125,299c-12.406,0-22.5,10.093-22.5,22.5c0,12.407,10.094,22.5,22.5,22.5s22.5-10.093,22.5-22.5
			C147.5,309.093,137.406,299,125,299z M125,329c-4.136,0-7.5-3.364-7.5-7.5s3.364-7.5,7.5-7.5s7.5,3.364,7.5,7.5
			S129.136,329,125,329z"/>
	</g>
</g>
<g>
	<g>
		<path d="M310,35h-66c-5.238,0-9.5,4.262-9.5,9.5v26c0,5.238,4.262,9.5,9.5,9.5h66c5.238,0,9.5-4.262,9.5-9.5v-26
			C319.5,39.262,315.239,35,310,35z M304.5,65h-55V50h55V65z"/>
	</g>
</g>
<g>
	<g>
		<path d="M406,35h-66c-5.238,0-9.5,4.262-9.5,9.5v26c0,5.238,4.262,9.5,9.5,9.5h66c5.238,0,9.5-4.262,9.5-9.5v-26
			C415.5,39.262,411.239,35,406,35z M400.5,65h-55V50h55V65z"/>
	</g>
</g>
<g>
	<g>
		<path d="M310,167h-66c-5.238,0-9.5,4.262-9.5,9.5v26c0,5.238,4.262,9.5,9.5,9.5h66c5.238,0,9.5-4.262,9.5-9.5v-26
			C319.5,171.262,315.239,167,310,167z M304.5,197h-55v-15h55V197z"/>
	</g>
</g>
<g>
	<g>
		<path d="M406,167h-66c-5.238,0-9.5,4.262-9.5,9.5v26c0,5.238,4.262,9.5,9.5,9.5h66c5.238,0,9.5-4.262,9.5-9.5v-26
			C415.5,171.262,411.239,167,406,167z M400.5,197h-55v-15h55V197z"/>
	</g>
</g>
<g>
	<g>
		<path d="M310,297h-66c-5.238,0-9.5,4.262-9.5,9.5v26c0,5.238,4.262,9.5,9.5,9.5h66c5.238,0,9.5-4.262,9.5-9.5v-26
			C319.5,301.262,315.239,297,310,297z M304.5,327h-55v-15h55V327z"/>
	</g>
</g>
<g>
	<g>
		<path d="M406,297h-66c-5.238,0-9.5,4.262-9.5,9.5v26c0,5.238,4.262,9.5,9.5,9.5h66c5.238,0,9.5-4.262,9.5-9.5v-26
			C415.5,301.262,411.239,297,406,297z M400.5,327h-55v-15h55V327z"/>
	</g>
</g>
<g>
	<g>
		<path d="M404.964,449c-11.266,0-21.165,5.949-26.733,14.867l-19.859-6.495c-3.939-1.288-8.172,0.86-9.459,4.797
			c-1.288,3.937,0.859,8.172,4.797,9.46l19.854,6.494c-0.059,0.786-0.099,1.577-0.099,2.378c0,17.369,14.131,31.5,31.5,31.5
			c17.369,0,31.5-14.131,31.5-31.5C436.465,463.132,422.333,449,404.964,449z M404.964,497c-9.098,0-16.5-7.402-16.5-16.5
			c0-9.098,7.402-16.5,16.5-16.5c9.098,0,16.5,7.402,16.5,16.5C421.464,489.598,414.063,497,404.964,497z"/>
	</g>
</g>
<g>
	<g>
		<path d="M256.5,386.578c-4.143,0-7.5,3.358-7.5,7.5v39.461c0,4.142,3.357,7.5,7.5,7.5s7.5-3.358,7.5-7.5v-39.461
			C264,389.936,260.643,386.578,256.5,386.578z"/>
	</g>
</g>
<g>
	<g>
		<circle cx="256.5" cy="456.29" r="7.5"/>
	</g>
</g>
<g>
</g>
<g>
</g>
<g>
</g>
<g>
</g>
<g>
</g>
<g>
</g>
<g>
</g>
<g>
</g>
<g>
</g>
<g>
</g>
<g>
</g>
<g>
</g>
<g>
</g>
<g>
</g>
<g>
</g>
</svg>
