<svg height="852pt" viewBox="-27 -27 852.50094 852" width="852pt" xmlns="http://www.w3.org/2000/svg"><path d="m448.171875 482.449219c-21.835937-17.789063-51.429687-22.757813-77.886719-13.089844-26.457031 9.675781-45.867187 32.566406-51.082031 60.25-5.0625 26.179687 3.453125 53.148437 22.636719 71.671875 1.703125 1.652344 2.664062 3.921875 2.664062 6.292969v3.464843c0 22.066407 17.890625 39.957032 39.949219 39.957032h26.632813c22.066406 0 39.957031-17.890625 39.957031-39.957032v-3.464843c-.039063-2.3125.855469-4.550781 2.492187-6.203125 16.332032-15.84375 25.089844-37.921875 24.070313-60.652344-1.019531-22.734375-11.71875-43.941406-29.398438-58.269531zm-13.242187 99.878906c-6.761719 6.683594-10.550782 15.796875-10.523438 25.304687v3.40625c0 7.359376-5.960938 13.320313-13.320312 13.320313h-26.632813c-7.351563 0-13.3125-5.960937-13.3125-13.320313v-3.464843c-.03125-9.511719-3.863281-18.628907-10.65625-25.300781-13.972656-13.621094-19.34375-33.816407-13.980469-52.582032 5.355469-18.769531 20.589844-33.078125 39.65625-37.253906 3.855469-.816406 7.789063-1.234375 11.734375-1.253906 12.210938-.019532 24.042969 4.222656 33.464844 11.988281 11.800781 9.519531 18.945313 23.644531 19.628906 38.789063.683594 15.140624-5.167969 29.847656-16.058593 40.394531zm0 0"/><path d="m437.71875 557.769531c0 7.355469-5.960938 13.316407-13.3125 13.316407-7.355469 0-13.320312-5.960938-13.320312-13.316407s5.964843-13.316406 13.320312-13.316406c7.351562 0 13.3125 5.960937 13.3125 13.316406zm0 0"/><path d="m384.453125 557.769531c0 7.355469-5.960937 13.316407-13.3125 13.316407-7.359375 0-13.324219-5.960938-13.324219-13.316407s5.964844-13.316406 13.324219-13.316406c7.351563 0 13.3125 5.960937 13.3125 13.316406zm0 0"/><path d="m601.777344 221.289062c5.390625 5.003907 13.808594 4.691407 18.820312-.695312l5.320313-5.773438 28.242187 23.53125c21.164063 17.664063 51.933594 17.664063 73.105469 0l32.730469-27.253906c15.210937-12.628906 24-31.386718 23.972656-51.160156v-115.289062l9.746094-10.492188c3.359375-3.464844 4.582031-8.46875 3.195312-13.09375-1.386718-4.617188-5.15625-8.128906-9.863281-9.167969-4.707031-1.050781-9.613281.523438-12.824219 4.125l-6.761718 7.28125-72.503907-24.167969c-2.730469-.90625-5.6875-.90625-8.417969 0l-79.902343 26.632813c-5.433594 1.808594-9.109375 6.902344-9.109375 12.640625v121.53125c-.003906 12.511719 3.539062 24.78125 10.203125 35.363281l-6.660157 7.152344c-2.40625 2.589844-3.683593 6.03125-3.546874 9.566406.128906 3.53125 1.660156 6.863281 4.253906 9.269531zm155.558594-61.351562c-.007813 11.839844-5.273438 23.058594-14.382813 30.628906l-32.707031 27.257813c-11.296875 9.417969-27.699219 9.417969-38.996094 0l-27.109375-22.546875 113.195313-121.945313zm-133.171876 0v-111.863281l66.589844-22.207031 56.792969 18.941406-120.453125 129.65625c-1.882812-4.617188-2.875-9.542969-2.929688-14.527344zm0 0"/><path d="m2.160156 234.257812c5.199219 5.199219 13.632813 5.199219 18.832032 0l22.394531-22.394531c47.628906 38.175781 116.355469 34.40625 159.523437-8.761719 43.160156-43.160156 46.9375-111.886718 8.753906-159.515624l22.398438-22.398438c5.046875-5.230469 4.972656-13.535156-.15625-18.671875-5.144531-5.136719-13.445312-5.207031-18.675781-.160156l-22.398438 22.394531c-47.625-38.175781-116.355469-34.402344-159.511719 8.757812-43.171874 43.164063-46.941406 111.890626-8.761718 159.523438l-22.398438 22.398438c-5.203125 5.199218-5.203125 13.628906 0 18.828124zm209.167969-115.957031c.089844 35.300781-19.816406 67.601563-51.375 83.40625-31.558594 15.804688-69.34375 12.386719-97.554687-8.824219l130.285156-130.296874c12.105468 16.058593 18.644531 35.613281 18.644531 55.714843zm-186.4375 0c-.078125-35.289062 19.820313-67.589843 51.378906-83.398437 31.5625-15.800782 69.351563-12.378906 97.5625 8.828125l-130.296875 130.292969c-12.09375-16.050782-18.644531-35.613282-18.644531-55.722657zm0 0"/><path d="m397.773438 91.667969c-108.414063 0-173.121094 74.671875-173.121094 199.761719.101562 31.664062 5.140625 63.113281 14.941406 93.21875h-42.621094c-20.046875-.019532-39.042968 9-51.707031 24.550781-12.664063 15.558593-17.632813 35.984375-13.546875 55.621093l9.03125 43.304688-41.285156 26.050781c-29.683594 18.164063-51 47.296875-59.339844 81.085938l-24.902344 99.480469c-4.972656 19.878906-.511718 40.945312 12.097656 57.105468 12.597657 16.15625 31.941407 25.609375 52.4375 25.636719h637.628907c20.5-.007813 39.859375-9.457031 52.472656-25.617187 12.621094-16.160157 17.089844-37.234376 12.113281-57.125l-24.902344-99.464844c-8.320312-33.742188-29.589843-62.851563-59.210937-81.023438l-42.890625-27.082031 8.824219-42.351563c4.09375-19.625-.878907-40.039062-13.515625-55.589843-12.644532-15.550781-31.625-24.582031-51.671875-24.582031h-42.613281c9.78125-30.105469 14.808593-61.554688 14.902343-93.21875 0-125.089844-64.707031-199.761719-173.121093-199.761719zm-146.488282 199.761719c0-52.058594 14.273438-173.128907 146.488282-173.128907 132.210937 0 146.488281 121.070313 146.488281 173.128907-.1875 31.785156-5.769531 63.308593-16.511719 93.21875h-25.308594c10.222656-27.9375 15.367188-57.476563 15.183594-87.230469 0-105.320313-60.207031-152.480469-119.851562-152.480469-59.648438 0-119.855469 47.160156-119.855469 152.480469-.195313 29.753906 4.921875 59.285156 15.128906 87.230469h-25.304687c-10.71875-29.917969-16.285157-61.433594-16.457032-93.21875zm70.765625 93.21875c-11.804687-27.546876-17.765625-57.253907-17.496093-87.230469 0-92.886719 50.21875-125.847657 93.21875-125.847657s93.21875 32.960938 93.21875 125.847657c.269531 29.976562-5.691407 59.683593-17.496094 87.230469zm-273.75 370.828124c-7.605469-9.675781-10.304687-22.335937-7.296875-34.273437l24.902344-99.503906c6.695312-27.070313 23.792969-50.398438 47.589844-64.9375l33.074218-20.828125 35.738282 171.535156c-14.707032 6.292969-24.246094 20.746094-24.246094 36.742188v13.320312c.046875 4.546875.875 9.050781 2.453125 13.3125h-80.757813c-12.296874.03125-23.917968-5.644531-31.457031-15.367188zm495.960938 15.367188h-346.246094c-7.359375 0-13.320313-5.960938-13.320313-13.3125v-13.320312c0-7.351563 5.960938-13.3125 13.320313-13.3125h399.511719c7.351562 0 13.320312 5.960937 13.320312 13.3125v13.320312c0 7.351562-5.96875 13.3125-13.320312 13.3125zm139.519531-213.980469c23.726562 14.535157 40.773438 37.820313 47.457031 64.835938l24.902344 99.460937c3 11.941406.320313 24.597656-7.25 34.304688-7.570313 9.710937-19.195313 15.382812-31.503906 15.378906h-82.355469c1.574219-4.261719 2.40625-8.765625 2.445312-13.3125v-13.320312c-.003906-15.988282-9.546874-30.429688-24.25-36.714844l35.960938-172.480469zm-54.175781-130.839843c7.605469 9.328124 10.59375 21.585937 8.128906 33.363281l-51.03125 244.875h-377.863281l-51.027344-244.875c-2.457031-11.777344.523438-24.03125 8.113281-33.363281 7.589844-9.324219 18.984375-14.746094 31.011719-14.742188h401.667969c12.03125-.023438 23.429687 5.398438 31 14.742188zm0 0"/></svg>