<svg xmlns="http://www.w3.org/2000/svg" width="70" height="70" viewBox="0 0 70 70"><g><g><path fill="#f76840" d="M13.808 36.2v-.713c0-.613-.498-1.111-1.11-1.111H11.63a1.468 1.468 0 0 0 0 2.936h.712a3.527 3.527 0 0 1 3.52 3.525 3.529 3.529 0 0 1-2.849 3.46v1.177a1.028 1.028 0 1 1-2.054 0v-1.127a3.172 3.172 0 0 1-2.85-3.153 1.029 1.029 0 0 1 2.055 0c0 .612.498 1.111 1.11 1.111h1.068a1.468 1.468 0 0 0 0-2.936h-.712a3.527 3.527 0 0 1-.671-6.986v-1.176a1.028 1.028 0 1 1 2.055 0v1.127a3.172 3.172 0 0 1 2.849 3.153v.713a1.028 1.028 0 1 1-2.055 0zM36.822 9.863v-.714c0-.613-.498-1.111-1.11-1.111h-1.068a1.468 1.468 0 0 0 0 2.935h.712a3.527 3.527 0 0 1 .671 6.987v1.175a1.029 1.029 0 1 1-2.055 0V18.01a3.172 3.172 0 0 1-2.849-3.154 1.028 1.028 0 1 1 2.055 0c0 .613.498 1.112 1.11 1.112h1.068a1.468 1.468 0 0 0 0-2.936h-.712a3.527 3.527 0 0 1-3.52-3.525 3.529 3.529 0 0 1 2.849-3.46V4.869a1.028 1.028 0 1 1 2.054 0v1.127a3.172 3.172 0 0 1 2.85 3.153v.714a1.028 1.028 0 1 1-2.055 0zM70 31.756c0 6.618-5.377 12.003-11.986 12.003-6.61 0-11.987-5.385-11.987-12.003 0-2.903 1.035-5.568 2.754-7.646l-4.883-4.075A11.951 11.951 0 0 1 35 24.005c-2.392 0-4.622-.705-6.495-1.919l-8.375 7.455a11.98 11.98 0 0 1 3.842 8.8c0 6.618-5.377 12.002-11.986 12.002C5.377 50.343 0 44.96 0 38.34c0-6.618 5.377-12.003 11.986-12.003 2.392 0 4.622.706 6.495 1.92l8.375-7.456a11.98 11.98 0 0 1-3.842-8.798C23.014 5.383 28.39-.001 35-.001c6.61 0 11.986 5.385 11.986 12.004 0 2.347-.677 4.54-1.845 6.39l5.086 4.245a11.927 11.927 0 0 1 7.787-2.885C64.623 19.753 70 25.137 70 31.756zm-58.014-3.36c-5.476 0-9.931 4.46-9.931 9.944 0 5.485 4.455 9.946 9.931 9.946 5.476 0 9.932-4.461 9.932-9.946 0-5.484-4.455-9.945-9.932-9.945zm32.945-16.393c0-5.485-4.455-9.946-9.931-9.946-5.476 0-9.932 4.461-9.932 9.946 0 5.483 4.456 9.944 9.932 9.944s9.931-4.46 9.931-9.944zm23.014 19.753c0-5.484-4.455-9.945-9.932-9.945-2.583 0-4.94.994-6.708 2.618a1.015 1.015 0 0 1-.607.61 9.913 9.913 0 0 0-2.616 6.717c0 5.484 4.455 9.946 9.932 9.946 5.476 0 9.931-4.462 9.931-9.946zm-8.11-2.14v-.714c0-.612-.497-1.11-1.11-1.11h-1.068a1.468 1.468 0 0 0 0 2.935h.713a3.527 3.527 0 0 1 3.52 3.525 3.53 3.53 0 0 1-2.85 3.46v1.177a1.028 1.028 0 1 1-2.054 0v-1.127a3.17 3.17 0 0 1-2.85-3.153 1.028 1.028 0 1 1 2.055 0c0 .613.498 1.111 1.11 1.111h1.068a1.468 1.468 0 0 0 0-2.936h-.712a3.527 3.527 0 0 1-3.52-3.524 3.53 3.53 0 0 1 2.85-3.46v-1.178a1.028 1.028 0 1 1 2.054 0v1.128a3.17 3.17 0 0 1 2.85 3.152v.714a1.028 1.028 0 1 1-2.056 0zM22.877 54.802v14.169c0 .568-.46 1.028-1.028 1.028h-8.767c-.567 0-1.027-.46-1.027-1.028V54.802c0-.569.46-1.03 1.027-1.03h8.767c.568 0 1.028.461 1.028 1.03zm-2.055 1.029H14.11v12.11h6.712zm44.794-1.029v14.169c0 .568-.46 1.028-1.027 1.028h-8.767c-.568 0-1.028-.46-1.028-1.028V54.802c0-.569.46-1.03 1.028-1.03h8.767c.568 0 1.027.461 1.027 1.03zm-2.054 1.029h-6.713v12.11h6.713zm-28.494 1.235V42.66h-6.712v25.28h6.712v-6.074a1.028 1.028 0 1 1 2.055 0v7.104c0 .568-.46 1.028-1.027 1.028h-8.767c-.568 0-1.028-.46-1.028-1.028V41.633c0-.569.46-1.03 1.028-1.03h8.767c.567 0 1.027.461 1.027 1.03v15.433a1.028 1.028 0 1 1-2.055 0zm16.302-8.849v20.754c0 .568-.46 1.028-1.028 1.028h-8.767c-.567 0-1.027-.46-1.027-1.028V48.217c0-.568.46-1.028 1.027-1.028h8.767c.568 0 1.028.46 1.028 1.028zm-2.055 1.029h-6.712V67.94h6.712z"/></g></g></svg>