<svg xmlns="http://www.w3.org/2000/svg" width="53" height="70" viewBox="0 0 53 70"><defs></defs><g><g><path fill="#40c4f4" d="M26.8 7.004c0 3.862-3.153 7.004-7.028 7.004-3.876 0-7.029-3.142-7.029-7.004 0-3.862 3.153-7.005 7.029-7.005 3.875 0 7.028 3.143 7.028 7.005zm-2.058 0c0-2.731-2.23-4.954-4.97-4.954-2.74 0-4.97 2.222-4.97 4.954 0 2.73 2.229 4.953 4.97 4.953 2.74 0 4.97-2.222 4.97-4.953zm21.394 37.14l-9.381 9.534a1.032 1.032 0 0 1-1.479-.01l-3.784-3.945a1.023 1.023 0 0 1 .033-1.45 1.031 1.031 0 0 1 1.455.032l3.05 3.18 8.636-8.778a1.032 1.032 0 0 1 1.456-.014c.405.397.412 1.046.014 1.45zm6.472 6.604c-1.29 6.466-5.78 12.14-12.186 14.697a1.025 1.025 0 1 1-.765-1.904c5.563-2.222 9.752-7.276 10.932-13.193a1.03 1.03 0 0 1 2.019.4zM53 35.466v10.297c0 .566-.46 1.025-1.029 1.025-.568 0-1.029-.459-1.029-1.025v-10.18c-4.252 2.348-7.62 1.333-9.702.06-2.071-1.267-3.306-3.036-3.601-3.491-.006.008-.015.021-.021.032-.416.65-1.032 1.382-1.788 2.074-3.295 3.064-7.329 3.626-11.495 1.326v11.178c0 7.576 4.66 14.133 11.285 16.779.528.21.784.807.573 1.333a1.03 1.03 0 0 1-1.338.57 19.82 19.82 0 0 1-6.674-4.408v5.406a3.568 3.568 0 0 1-3.57 3.557h-2.298a3.566 3.566 0 0 1-2.541-1.06 3.566 3.566 0 0 1-2.541 1.06h-2.298a3.568 3.568 0 0 1-3.57-3.557V28.574c-2.139 3.248-3.257 6.982-3.257 10.948a4.04 4.04 0 0 1-4.164 4.034C1.765 43.497 0 41.646.007 39.43c.033-10.57 5.632-17.371 8.966-20.485a8.702 8.702 0 0 1 5.96-2.344h9.677c2.083 0 4.076.775 5.61 2.184 2.408 2.21 5.603 5.92 7.517 11.26.66.033 1.251.38 1.598.946.042.068 1.097 1.754 2.98 2.904 2.369 1.448 4.965 1.396 7.718-.153 1.326-.747 2.967.21 2.967 1.725zM17.963 18.651l1.232 1.458a.756.756 0 0 0 1.154 0l1.232-1.458zm12.755 16.163a19.325 19.325 0 0 0-2.538-5.975v6.011a6.416 6.416 0 0 0 2.538-.036zm5.19-3.773c-1.76-5.115-4.802-8.656-7.082-10.748a6.223 6.223 0 0 0-4.216-1.642h-.339l-2.348 2.779a2.818 2.818 0 0 1-4.303 0l-2.348-2.78h-.339c-1.7 0-3.316.637-4.553 1.792-3.092 2.887-8.285 9.194-8.315 18.994-.004 1.112.864 2.041 1.934 2.07a1.987 1.987 0 0 0 2.049-1.984c0-5.468 1.927-10.535 5.573-14.653.624-.705 1.8-.264 1.8.679v40.894a1.51 1.51 0 0 0 1.512 1.506h2.298c.834 0 1.512-.676 1.512-1.506V45.368c0-.566.46-1.026 1.029-1.026.568 0 1.029.46 1.029 1.026v21.074c0 .831.678 1.507 1.512 1.507h2.298c.833 0 1.512-.677 1.512-1.507v-7.817a20.084 20.084 0 0 1-3.847-11.863V35.466c0-1.459 1.524-2.408 2.832-1.794.015.007.57.314 1.014.516v-8.439c0-.947 1.187-1.389 1.809-.668 2.31 2.673 3.895 5.69 4.722 8.98a9.895 9.895 0 0 0 3.255-3.02z"/><path fill="url(#uaw7a)" d="M26.8 7.004c0 3.862-3.153 7.004-7.028 7.004-3.876 0-7.029-3.142-7.029-7.004 0-3.862 3.153-7.005 7.029-7.005 3.875 0 7.028 3.143 7.028 7.005zm-2.058 0c0-2.731-2.23-4.954-4.97-4.954-2.74 0-4.97 2.222-4.97 4.954 0 2.73 2.229 4.953 4.97 4.953 2.74 0 4.97-2.222 4.97-4.953zm21.394 37.14l-9.381 9.534a1.032 1.032 0 0 1-1.479-.01l-3.784-3.945a1.023 1.023 0 0 1 .033-1.45 1.031 1.031 0 0 1 1.455.032l3.05 3.18 8.636-8.778a1.032 1.032 0 0 1 1.456-.014c.405.397.412 1.046.014 1.45zm6.472 6.604c-1.29 6.466-5.78 12.14-12.186 14.697a1.025 1.025 0 1 1-.765-1.904c5.563-2.222 9.752-7.276 10.932-13.193a1.03 1.03 0 0 1 2.019.4zM53 35.466v10.297c0 .566-.46 1.025-1.029 1.025-.568 0-1.029-.459-1.029-1.025v-10.18c-4.252 2.348-7.62 1.333-9.702.06-2.071-1.267-3.306-3.036-3.601-3.491-.006.008-.015.021-.021.032-.416.65-1.032 1.382-1.788 2.074-3.295 3.064-7.329 3.626-11.495 1.326v11.178c0 7.576 4.66 14.133 11.285 16.779.528.21.784.807.573 1.333a1.03 1.03 0 0 1-1.338.57 19.82 19.82 0 0 1-6.674-4.408v5.406a3.568 3.568 0 0 1-3.57 3.557h-2.298a3.566 3.566 0 0 1-2.541-1.06 3.566 3.566 0 0 1-2.541 1.06h-2.298a3.568 3.568 0 0 1-3.57-3.557V28.574c-2.139 3.248-3.257 6.982-3.257 10.948a4.04 4.04 0 0 1-4.164 4.034C1.765 43.497 0 41.646.007 39.43c.033-10.57 5.632-17.371 8.966-20.485a8.702 8.702 0 0 1 5.96-2.344h9.677c2.083 0 4.076.775 5.61 2.184 2.408 2.21 5.603 5.92 7.517 11.26.66.033 1.251.38 1.598.946.042.068 1.097 1.754 2.98 2.904 2.369 1.448 4.965 1.396 7.718-.153 1.326-.747 2.967.21 2.967 1.725zM17.963 18.651l1.232 1.458a.756.756 0 0 0 1.154 0l1.232-1.458zm12.755 16.163a19.325 19.325 0 0 0-2.538-5.975v6.011a6.416 6.416 0 0 0 2.538-.036zm5.19-3.773c-1.76-5.115-4.802-8.656-7.082-10.748a6.223 6.223 0 0 0-4.216-1.642h-.339l-2.348 2.779a2.818 2.818 0 0 1-4.303 0l-2.348-2.78h-.339c-1.7 0-3.316.637-4.553 1.792-3.092 2.887-8.285 9.194-8.315 18.994-.004 1.112.864 2.041 1.934 2.07a1.987 1.987 0 0 0 2.049-1.984c0-5.468 1.927-10.535 5.573-14.653.624-.705 1.8-.264 1.8.679v40.894a1.51 1.51 0 0 0 1.512 1.506h2.298c.834 0 1.512-.676 1.512-1.506V45.368c0-.566.46-1.026 1.029-1.026.568 0 1.029.46 1.029 1.026v21.074c0 .831.678 1.507 1.512 1.507h2.298c.833 0 1.512-.677 1.512-1.507v-7.817a20.084 20.084 0 0 1-3.847-11.863V35.466c0-1.459 1.524-2.408 2.832-1.794.015.007.57.314 1.014.516v-8.439c0-.947 1.187-1.389 1.809-.668 2.31 2.673 3.895 5.69 4.722 8.98a9.895 9.895 0 0 0 3.255-3.02z"/></g></g></svg>